<?xml version="1.0" standalone="no"?>
<!DOCTYPE svg PUBLIC "-//W3C//DTD SVG 1.1//EN" "http://www.w3.org/Graphics/SVG/1.1/DTD/svg11.dtd" >
<svg xmlns="http://www.w3.org/2000/svg">
<metadata></metadata>
<defs>
<font id="helvetica_neue_lt_com45_light" horiz-adv-x="1138" >
<font-face units-per-em="2048" ascent="1462" descent="-586" />
<missing-glyph horiz-adv-x="569" />
<glyph unicode="&#xfb01;" horiz-adv-x="909" d="M12 948v109h181v96q0 71 10 125q11 58 39 98q29 41 79 64q48 22 128 22q21 0 53 -2q26 -2 55 -6v-111q-44 7 -49 8q-22 3 -45 3q-53 0 -82 -17q-28 -16 -42 -44q-14 -27 -15 -64q-2 -50 -2 -80v-92h208v-109h-208v-948h-129v948h-181zM655 0v1057h129v-1057h-129z M655 1255v207h129v-207h-129z" />
<glyph unicode="&#xfb02;" horiz-adv-x="909" d="M12 948v109h181v96q0 71 10 125q11 58 39 98q29 41 79 64q48 22 128 22q21 0 53 -2q26 -2 55 -6v-111q-44 7 -49 8q-22 3 -45 3q-53 0 -82 -17q-28 -16 -42 -44q-14 -27 -15 -64q-2 -50 -2 -80v-92h208v-109h-208v-948h-129v948h-181zM655 0v1462h129v-1462h-129z" />
<glyph horiz-adv-x="2048" />
<glyph horiz-adv-x="2048" />
<glyph unicode="&#xd;" horiz-adv-x="0" />
<glyph unicode=" "  horiz-adv-x="569" />
<glyph unicode="&#x09;" horiz-adv-x="569" />
<glyph unicode="&#xa0;" horiz-adv-x="569" />
<glyph unicode="!" horiz-adv-x="493" d="M162 0v217h172v-217h-172zM178 1026v436h139v-436l-30 -661h-78z" />
<glyph unicode="&#x22;" horiz-adv-x="757" d="M178 965v497h129v-497h-129zM451 965v497h129v-497h-129z" />
<glyph unicode="#" d="M72 457v92h237l45 319h-225v93h238l63 454h102l-63 -454h289l63 454h103l-64 -454h215v-93h-227l-45 -319h215v-92h-227l-64 -457h-102l63 457h-289l-63 -457h-103l64 457h-225zM412 549h288l45 319h-288z" />
<glyph unicode="$" d="M59 467h129q1 -176 90 -274q88 -97 248 -115v606q-86 18 -165 45q-78 26 -137 72q-58 45 -93 114q-35 70 -35 179q0 94 34 166q34 73 92 125q60 54 136 80q81 28 168 28v160h80v-160q87 0 168 -32q80 -32 140 -90q62 -60 95 -140q33 -78 31 -182h-129q-1 152 -86 244 q-84 91 -219 91v-589q86 -17 173 -45q85 -27 152 -74q66 -47 107 -119q41 -73 41 -178q0 -101 -40 -177q-41 -77 -106 -129q-66 -52 -152 -78q-87 -26 -175 -26v-174h-80v176q-239 22 -349 143q-111 121 -118 353zM225 1079q0 -70 26 -116t67 -74t97 -45q42 -13 111 -31v571 q-64 0 -115 -17q-58 -19 -97 -54q-41 -37 -65 -95t-24 -139zM606 78q67 0 127 16q64 17 110 53q48 38 78 94q29 55 29 136q0 74 -31 123q-31 50 -81 81q-48 30 -111 52q-52 18 -121 35v-590z" />
<glyph unicode="%" horiz-adv-x="1820" d="M141 1059q0 78 19 152q18 71 57 123t101 82q63 30 149 30q85 0 148 -30q64 -30 102 -82q39 -52 57 -123q19 -74 19 -152q0 -79 -19 -153q-18 -70 -57 -123q-38 -52 -102 -82q-61 -29 -148 -29q-88 0 -149 29q-62 30 -101 82q-39 53 -57 123q-19 74 -19 153zM250 1057 q0 -50 9 -101q8 -48 34 -94q24 -43 66 -70q44 -28 108 -28q61 0 105 28t67 70q25 45 35 94t10 101q0 51 -10 101q-10 51 -35 96t-67 72q-44 28 -105 28q-64 0 -108 -28q-41 -26 -66 -72t-34 -96q-9 -52 -9 -101zM389 -70l928 1555h96l-926 -1555h-98zM1040 356q0 79 19 153 q18 71 57 123q38 52 102 82q61 29 148 29t148 -29q64 -30 102 -82q39 -52 57 -123q19 -74 19 -153q0 -78 -19 -152q-18 -70 -57 -123q-38 -52 -102 -82q-63 -30 -148 -30t-148 30q-64 30 -102 82q-39 53 -57 123q-19 74 -19 152zM1149 354q0 -49 9 -100q8 -48 34 -94 q24 -44 66 -71q44 -28 108 -28q61 0 105 28q43 28 67 71q25 45 35 94t10 100q0 52 -10 102q-10 51 -35 96t-67 72t-105 27q-66 0 -108 -27q-41 -26 -66 -72t-34 -96q-9 -52 -9 -102z" />
<glyph unicode="&#x26;" horiz-adv-x="1251" d="M80 379q0 77 33 143q34 68 85 119q54 54 115 96q58 40 125 76q-11 14 -32 41t-30 38q-38 49 -58 83q-24 41 -43 90q-17 44 -17 100q0 67 26 122q26 54 69 93q45 40 103 61t126 21t126 -21q57 -20 102 -61t70 -93q25 -53 25 -122q0 -67 -24 -123q-23 -53 -65 -100 q-43 -48 -91 -83q-57 -42 -107 -73l320 -385q27 53 35 108q8 58 8 138h129q0 -67 -17 -159q-18 -96 -69 -191l246 -297h-162l-156 190q-79 -100 -190 -160q-113 -61 -240 -61q-94 0 -175 27q-80 27 -140 79q-58 50 -93 129q-34 75 -34 175zM209 367q0 -65 27 -118 q27 -52 70 -91q42 -38 102 -60q54 -20 118 -20q111 0 198 60q85 59 148 149l-364 442q-57 -30 -107 -63q-51 -34 -96 -80q-39 -41 -69 -100q-27 -54 -27 -119zM387 1165q0 -40 16 -79q15 -36 41 -77q19 -30 54 -74q27 -34 53 -65q18 11 79 54q38 26 72 64q32 35 54 80 q20 41 20 97q0 93 -57 141t-137 48q-81 0 -138 -48t-57 -141z" />
<glyph unicode="'" horiz-adv-x="569" d="M221 965v497h129v-497h-129z" />
<glyph unicode="(" horiz-adv-x="493" d="M104 545q0 261 77 501q76 237 212 447h103q-137 -220 -200 -471q-63 -252 -63 -524q0 -107 20 -229q21 -125 53 -232q36 -119 82 -224q48 -109 108 -204h-103q-71 119 -122 223q-53 110 -91 224q-36 109 -56 235q-20 125 -20 254z" />
<glyph unicode=")" horiz-adv-x="493" d="M-2 -391q137 220 200 471q62 248 62 524q0 114 -19 229q-19 117 -54 232q-37 123 -83 223q-53 116 -106 205h102q71 -119 122 -223q53 -110 91 -224t57 -235q19 -118 19 -254q0 -261 -77 -501q-76 -237 -212 -447h-102z" />
<glyph unicode="*" horiz-adv-x="720" d="M55 1219l29 75l235 -84v252h80v-252l236 84l31 -75l-242 -80l147 -201l-65 -47l-150 205l-149 -205l-66 47l150 201z" />
<glyph unicode="+" horiz-adv-x="1228" d="M100 461v108h461v461h109v-461h460v-108h-460v-461h-109v461h-461z" />
<glyph unicode="," horiz-adv-x="569" d="M190 -193q24 8 43 31q20 25 31 50q14 32 18 58q4 30 3 54h-86v217h172v-219q0 -45 -12 -89q-14 -50 -33 -82q-24 -39 -57 -67q-36 -29 -79 -41v88z" />
<glyph unicode="-" horiz-adv-x="757" d="M123 504v119h512v-119h-512z" />
<glyph unicode="." horiz-adv-x="569" d="M199 0v217h172v-217h-172z" />
<glyph unicode="/" horiz-adv-x="681" d="M-27 -31l631 1524h105l-625 -1524h-111z" />
<glyph unicode="0" d="M70 707q0 128 19 257q19 130 74 238q54 106 151 175q98 69 255 69q155 0 254 -69t153 -175q55 -108 74 -237q19 -127 19 -256q0 -131 -19 -258q-20 -131 -74 -238q-54 -106 -153 -175t-254 -69q-157 0 -255 69q-97 69 -151 175q-54 107 -74 238q-19 127 -19 256zM199 709 q0 -95 12 -204t50 -205q38 -95 112 -159q74 -63 196 -63q123 0 197 63q74 64 112 159q38 96 50 205t12 204q0 91 -12 202q-12 109 -50 205q-37 94 -112 158q-74 63 -197 63q-122 0 -196 -63q-75 -64 -112 -158q-38 -96 -50 -205q-12 -111 -12 -202z" />
<glyph unicode="1" d="M199 1065v92q83 1 152 9q70 8 119 33q50 25 84 81q33 52 48 154h105v-1434h-129v1065h-379z" />
<glyph unicode="2" d="M74 0q1 104 38 188t92 148q59 68 128 120q86 65 147 104q44 29 150 102q75 52 135 112q59 59 89 122t30 148q0 69 -26 124t-70 93q-43 37 -102 57q-57 19 -124 19q-89 0 -150 -32q-64 -33 -102 -88q-38 -54 -56 -127q-17 -66 -15 -152h-129q-2 113 25 204q27 92 85 161 q56 67 145 105q88 38 203 38q92 0 175 -26q80 -25 141 -77q60 -51 94 -125q35 -76 35 -176q0 -90 -30 -163q-30 -74 -80 -136q-46 -58 -116 -113q-69 -55 -135 -98q-36 -24 -122 -76q-61 -37 -133 -94q-62 -49 -113 -111q-50 -61 -62 -132h797v-119h-944z" />
<glyph unicode="3" d="M68 457h129q-5 -88 19 -156q25 -71 70 -119q48 -51 114 -77q69 -27 155 -27q73 0 136 20q67 21 118 62q53 42 82 99q31 60 31 136t-27 133q-28 59 -74 96q-48 38 -109 56q-63 18 -134 18h-109v109h109q52 0 101 14q54 15 94 47q42 33 69 82q26 48 26 117q0 70 -24 121 q-23 50 -68 85q-43 34 -100 49t-121 15q-82 0 -141 -26q-62 -27 -104 -75q-40 -46 -62 -115q-21 -65 -19 -146h-129q0 99 32 187q32 87 90 150q57 61 143 98q84 36 188 36q81 0 164 -22q78 -20 142 -65q61 -42 100 -114q38 -70 38 -164q0 -118 -62 -202q-64 -87 -179 -115 v-4q141 -22 218 -118q77 -95 77 -236q0 -106 -40 -187t-108 -137q-67 -55 -158 -84q-92 -29 -188 -29q-111 0 -204 33q-95 34 -159 95q-67 64 -101 154q-33 87 -25 206z" />
<glyph unicode="4" d="M61 356v125l664 953h117v-969h215v-109h-215v-356h-119v356h-662zM178 465h545v780h-4z" />
<glyph unicode="5" d="M74 410h129q1 -73 29 -136q26 -59 75 -105q46 -43 111 -68q60 -23 137 -23q81 0 148 32t114 85q49 56 72 124q24 72 24 150q0 79 -27 147q-27 67 -76 118t-116 79q-69 29 -147 29q-95 0 -181 -44q-87 -44 -139 -126h-110l139 743h717v-119h-627l-92 -475l4 -4 q53 63 136 98q84 35 167 35q113 0 200 -37q90 -38 151 -102q62 -65 97 -157q33 -88 33 -199q0 -108 -38 -194q-39 -88 -107 -153q-67 -64 -159 -102q-90 -37 -193 -37q-98 0 -186 31q-83 29 -147 87q-62 56 -99 138t-39 185z" />
<glyph unicode="6" d="M82 731q0 36 5 113q4 59 24 148q18 81 52 160q35 82 90 146q58 68 140 107q85 41 201 41q190 0 304 -93q113 -93 136 -282h-129q-17 121 -95 193q-79 73 -204 73t-203 -63q-75 -61 -120 -160q-43 -94 -58 -208q-14 -104 -14 -210h4q50 105 155 172q104 66 226 66 q106 0 195 -36q87 -35 149 -99q60 -61 95 -152q34 -87 34 -192q0 -106 -36 -194q-36 -89 -100 -153t-154 -102q-87 -37 -195 -37q-133 0 -226 40q-94 40 -155 131q-61 90 -91 237q-30 145 -30 354zM238 446q0 -79 20 -143q21 -68 65 -118q45 -51 111 -79t162 -28 q76 0 139 30q65 31 110 79t70 118t25 141q0 79 -24 148q-25 72 -67 121q-43 50 -109 81q-62 29 -146 29q-87 0 -151 -29q-65 -30 -112 -81q-46 -50 -70 -120q-23 -66 -23 -149z" />
<glyph unicode="7" d="M104 1296v119h922v-119q-70 -71 -162 -187q-96 -121 -183 -281q-94 -173 -156 -370q-67 -212 -79 -458h-139q12 179 50 344q36 157 109 316q70 154 176 311q104 154 255 325h-793z" />
<glyph unicode="8" d="M76 401q5 142 81 242q77 101 210 125v4q-113 35 -173 116q-61 82 -61 199q0 92 38 160q38 69 99 112q62 44 140 65q82 22 157 22q76 0 158 -22q75 -20 140 -65q63 -43 101 -112q38 -68 38 -160q0 -116 -62 -199t-172 -116v-4q139 -28 216 -125t77 -242q0 -108 -39 -189 q-39 -82 -106 -135q-67 -54 -158 -81q-90 -27 -191 -27q-100 0 -190 27q-91 27 -158 81q-67 53 -106 135q-39 81 -39 189zM205 401q0 -81 28 -141t78 -101q48 -39 116 -61q63 -20 142 -20t143 19q65 19 115 60t78 101q29 63 29 143q0 78 -30 137q-29 56 -80 98 q-47 39 -116 59q-66 20 -139 18q-74 2 -140 -18q-68 -20 -116 -58q-49 -39 -79 -97q-29 -57 -29 -139zM262 1087q0 -71 27 -122q28 -53 69 -84t99 -47q54 -15 112 -13q58 -1 115 14q56 15 97 49q43 35 68 84t25 119q0 64 -23 109q-25 48 -65 78q-42 31 -97 47t-120 16 q-60 0 -114 -16t-99 -47q-41 -28 -68 -78q-26 -47 -26 -109z" />
<glyph unicode="9" d="M70 961q0 107 35 193q36 89 101 154q63 63 153 101q87 37 196 37q132 0 225 -40q95 -41 156 -131t91 -237q30 -146 30 -354q0 -36 -5 -113q-4 -59 -24 -148q-18 -81 -52 -160q-35 -82 -90 -146q-58 -67 -141 -107q-85 -41 -200 -41q-190 0 -304 93q-115 93 -137 282h129 q17 -118 96 -192q80 -74 203 -74q125 0 203 63q76 62 121 160q41 91 57 208q15 111 15 210h-4q-50 -105 -155 -172q-103 -66 -226 -66q-109 0 -196 36q-86 36 -148 99q-61 63 -96 152q-33 85 -33 193zM199 969q0 -82 23 -148q24 -70 68 -121q42 -49 108 -80q64 -30 147 -30 q84 0 150 30q68 31 113 80q46 50 70 120q23 66 23 149q0 79 -20 143q-21 68 -65 118q-45 51 -111 79t-162 28q-80 0 -141 -29q-59 -28 -108 -80q-47 -50 -71 -118t-24 -141z" />
<glyph unicode=":" horiz-adv-x="569" d="M199 0v217h172v-217h-172zM199 807v217h172v-217h-172z" />
<glyph unicode=";" horiz-adv-x="569" d="M190 -193q24 8 43 31q20 25 31 50q14 32 18 58q4 30 3 54h-86v217h172v-219q0 -45 -12 -89q-14 -50 -33 -82q-24 -39 -57 -67q-36 -29 -79 -41v88zM199 807v217h172v-217h-172z" />
<glyph unicode="&#x3c;" horiz-adv-x="1228" d="M94 463v110l1041 480v-113l-914 -422l914 -422v-112z" />
<glyph unicode="=" horiz-adv-x="1228" d="M100 262v109h1030v-109h-1030zM100 666v108h1030v-108h-1030z" />
<glyph unicode="&#x3e;" horiz-adv-x="1228" d="M94 -16v112l914 422l-914 422v113l1041 -480v-110z" />
<glyph unicode="?" horiz-adv-x="1099" d="M111 1012q0 110 31 197q32 89 90 152q57 62 146 97q88 35 197 35q85 0 161 -26q77 -26 132 -74q57 -49 90 -120t33 -159q0 -114 -50 -194q-50 -81 -128 -154q-77 -77 -102 -100q-38 -35 -56 -71t-24 -85q-7 -54 -8 -143h-129q-2 96 10 158q12 65 41 115q31 53 73 97 q49 51 111 107q59 56 95 119q38 67 38 145q0 64 -23 113q-24 52 -64 87q-38 34 -93 56q-50 20 -113 20q-84 0 -146 -28t-104 -79q-39 -48 -61 -118q-20 -63 -18 -147h-129zM473 0v217h172v-217h-172z" />
<glyph unicode="@" horiz-adv-x="1638" d="M96 737q0 159 59 298t160 240t239 160q135 58 294 58q148 0 274 -46q128 -47 220 -131q96 -88 147 -202q53 -118 53 -258q0 -123 -42 -231q-43 -111 -109 -190q-67 -80 -153 -127q-85 -46 -171 -46q-52 0 -92 35q-39 35 -45 102h-4q-43 -45 -115 -92q-67 -43 -145 -43 q-64 0 -114 24q-52 25 -85 64q-35 41 -53 94q-19 55 -19 115q0 105 35 212q35 106 98 190t154 137t199 53q69 0 125 -40q58 -41 92 -132l51 133h108l-196 -590q-11 -33 -18 -63q-7 -27 -5 -54q1 -22 14 -38q12 -15 35 -15q68 0 132 47q63 46 110 121q48 76 76 164 q29 92 29 176q0 129 -46 228q-45 98 -126 168q-77 67 -186 106q-104 37 -224 37q-142 0 -262 -53q-119 -53 -205 -145q-88 -94 -133 -215q-47 -126 -47 -265q0 -140 49 -260q50 -122 136 -210q88 -89 207 -140q122 -52 259 -52q72 0 151 19q75 18 144 54q67 35 129 86 q55 45 104 114h105q-47 -84 -116 -152q-70 -68 -151 -114q-85 -48 -176 -73q-95 -26 -190 -26q-166 0 -305 60q-141 61 -241 162q-99 100 -157 244q-57 141 -57 302zM524 571q0 -93 48 -145q48 -53 122 -53q71 0 133 50q59 48 108 123q46 70 73 156q26 81 26 152 q0 39 -14 71q-14 33 -37 60q-22 26 -51 43q-28 16 -60 16q-77 0 -142 -47q-63 -45 -110 -117q-47 -71 -71 -154q-25 -86 -25 -155z" />
<glyph unicode="A" horiz-adv-x="1290" d="M-14 0l589 1462h156l574 -1462h-150l-178 455h-666l-176 -455h-149zM354 573h576l-283 750z" />
<glyph unicode="B" horiz-adv-x="1366" d="M147 0v1462h619q96 0 177 -17q85 -18 150 -60t103 -110q39 -69 39 -171q0 -58 -18 -112t-53 -98q-38 -48 -80 -75q-49 -32 -103 -43v-4q141 -18 225 -116t84 -240q0 -54 -15 -124q-14 -67 -69 -136q-53 -66 -157 -111q-105 -45 -283 -45h-619zM287 119h479q81 0 147 13 q71 14 123 48q55 36 84 93q31 60 31 147q0 142 -100 212t-285 70h-479v-583zM287 821h479q82 0 145 20q65 21 103 53q40 34 61 79t21 96q0 274 -330 274h-479v-522z" />
<glyph unicode="C" horiz-adv-x="1441" d="M78 731q0 152 43 288q44 140 129 244q86 105 216 168q128 62 302 62q102 0 204 -31q97 -29 180 -91q82 -60 135 -148q54 -88 69 -203h-139q-17 82 -61 150q-43 68 -102 112t-133 69q-69 23 -153 23q-146 0 -250 -55q-105 -55 -171 -147q-67 -93 -98 -206 q-32 -117 -32 -235q0 -119 32 -235q31 -114 98 -206q66 -92 171 -147q104 -55 250 -55q102 0 183 37q84 38 143 100q57 60 96 149q36 83 47 183h139q-16 -141 -63 -244q-50 -110 -127 -185q-79 -78 -184 -118q-106 -41 -234 -41q-172 0 -302 63t-216 168t-129 243 q-43 136 -43 288z" />
<glyph unicode="D" horiz-adv-x="1402" d="M147 0v1462h506q332 -8 502 -188q170 -181 170 -543t-170 -543q-170 -180 -502 -188h-506zM287 119h297q159 0 271 34q115 35 187 107q75 75 109 191q35 119 35 280q0 162 -35 281q-34 115 -109 190q-74 74 -187 108q-109 33 -271 33h-297v-1224z" />
<glyph unicode="E" horiz-adv-x="1214" d="M147 0v1462h1010v-119h-870v-528h815v-119h-815v-577h880v-119h-1020z" />
<glyph unicode="F" horiz-adv-x="1099" d="M147 0v1462h928v-119h-788v-528h700v-119h-700v-696h-140z" />
<glyph unicode="G" horiz-adv-x="1517" d="M78 731q0 152 43 288q44 140 129 244q86 105 216 168q128 62 302 62q112 0 217 -31q101 -30 183 -92q84 -64 136 -152q53 -89 74 -210h-139q-6 64 -42 128t-96 117q-59 52 -145 87q-83 34 -188 34q-146 0 -250 -55q-105 -55 -171 -147q-67 -93 -98 -206 q-32 -117 -32 -235q0 -119 32 -235q31 -114 98 -206q66 -92 171 -147q104 -55 250 -55q123 0 216 40q96 41 161 112t98 170q31 92 31 202v13h-498v118h621v-743h-101l-18 266h-4q-37 -77 -91 -134q-52 -55 -120 -92q-64 -35 -140 -53q-75 -18 -155 -18q-172 0 -302 63 t-216 168t-129 243q-43 136 -43 288z" />
<glyph unicode="H" horiz-adv-x="1441" d="M147 0v1462h140v-635h868v635h139v-1462h-139v709h-868v-709h-140z" />
<glyph unicode="I" horiz-adv-x="454" d="M158 0v1462h139v-1462h-139z" />
<glyph unicode="J" horiz-adv-x="1024" d="M43 469h139q0 -10 5 -113q3 -64 29 -125q25 -59 82 -101t165 -42q80 0 135 22t84 67q31 49 43 118q12 72 12 172v995h140v-1054q0 -110 -23 -194q-22 -82 -73 -137q-49 -54 -131 -81q-81 -27 -199 -27q-127 0 -206 42q-78 41 -124 113q-45 71 -62 160q-16 86 -16 185z " />
<glyph unicode="K" horiz-adv-x="1327" d="M147 0v1462h140v-786l850 786h188l-653 -604l684 -858h-180l-609 762l-280 -260v-502h-140z" />
<glyph unicode="L" horiz-adv-x="1099" d="M147 0v1462h140v-1343h819v-119h-959z" />
<glyph unicode="M" horiz-adv-x="1705" d="M143 0v1462h205l506 -1282l504 1282h205v-1462h-140v1264h-4l-499 -1264h-132l-501 1264h-4v-1264h-140z" />
<glyph unicode="N" horiz-adv-x="1441" d="M145 0v1462h156l852 -1237h4v1237h139v-1462h-155l-852 1237h-4v-1237h-140z" />
<glyph unicode="O" horiz-adv-x="1517" d="M70 731q0 152 43 288q44 140 129 244q86 105 216 168q128 62 302 62t301 -62q130 -63 215 -168q85 -104 129 -244q43 -136 43 -288t-43 -288q-43 -138 -129 -243q-85 -105 -215 -168q-129 -63 -301 -63t-302 63t-216 168t-129 243q-43 136 -43 288zM209 731 q0 -119 32 -235q31 -114 98 -206q66 -92 171 -147q104 -55 250 -55q144 0 248 55q105 55 171 147q67 92 98 206q32 116 32 235q0 118 -32 235q-31 113 -98 206q-66 92 -171 147q-104 55 -248 55q-146 0 -250 -55q-105 -55 -171 -147q-67 -93 -98 -206q-32 -117 -32 -235z " />
<glyph unicode="P" horiz-adv-x="1290" d="M147 0v1462h650q99 0 178 -27t137 -82q59 -55 88 -132q31 -81 31 -177q0 -95 -31 -176q-29 -77 -88 -132q-58 -55 -137 -82t-178 -27h-510v-627h-140zM287 745h479q144 0 235 74t91 225q0 152 -91 226q-89 73 -235 73h-479v-598z" />
<glyph unicode="Q" horiz-adv-x="1517" d="M70 731q0 152 43 288q44 140 129 244q86 105 216 168q128 62 302 62t301 -62q130 -63 215 -168q85 -104 129 -244q43 -136 43 -288q0 -171 -55 -321q-56 -152 -166 -258l209 -160l-70 -86l-227 172q-81 -56 -170 -81q-98 -28 -209 -28q-172 0 -302 63t-216 168t-129 243 q-43 136 -43 288zM209 731q0 -119 32 -235q31 -114 98 -206q66 -92 171 -147q104 -55 250 -55q158 0 270 72l-192 145l71 88l213 -162q99 92 143 226q44 135 44 274q0 118 -32 235q-31 113 -98 206q-66 92 -171 147q-104 55 -248 55q-146 0 -250 -55q-105 -55 -171 -147 q-67 -93 -98 -206q-32 -117 -32 -235z" />
<glyph unicode="R" horiz-adv-x="1366" d="M147 0v1462h670q92 0 171 -22q81 -22 141 -69q61 -47 97 -119t36 -171q0 -139 -72 -241q-72 -103 -213 -131v-4q72 -10 119 -38q45 -26 76 -71q30 -43 43 -99q14 -57 18 -122q0 -6 1.5 -38t2.5 -52q1 -48 8 -108q6 -51 20 -102q14 -50 35 -75h-153q-13 23 -20 50 q-5 20 -11 62q-3 20 -5 62q-2 32 -3 53q-5 84 -13 154q-9 78 -39 138t-86 97q-51 33 -136 33h-19h-528v-649h-140zM287 768h520q65 0 121 19t100 57t69 89t25 120q0 135 -79 213q-78 77 -236 77h-520v-575z" />
<glyph unicode="S" horiz-adv-x="1290" d="M74 481h139v-12q0 -106 35 -176q38 -77 101 -121t153 -64q91 -20 188 -20q60 0 125 16q66 16 126 53q59 36 97 92q39 57 39 136q0 62 -27 107q-26 43 -72 75q-44 30 -97 50q-54 20 -105 32l-325 80q-60 15 -125 41q-57 23 -105 66q-47 42 -73 100q-27 60 -27 145 q0 56 20 125q21 74 77 135q60 66 155 108q100 44 252 44q105 0 206 -29q98 -28 174 -86q73 -55 117 -142q43 -85 43 -198h-139q-5 85 -37 147t-88 104q-58 44 -126 64q-71 21 -148 21q-73 0 -139 -15q-68 -15 -116 -49q-53 -37 -81 -89q-31 -57 -31 -138q0 -51 18 -89 t48 -63q29 -25 70 -43q39 -17 85 -28l357 -88q81 -22 146 -50q67 -29 121 -74q51 -42 82 -107q30 -63 30 -154q0 -11 -6 -65q-5 -42 -24 -88q-20 -48 -55 -93q-37 -47 -99 -86q-61 -37 -154 -62q-91 -24 -222 -24q-128 0 -239 30q-113 31 -189 92q-77 62 -119 160 q-37 85 -37 197q0 16 1 33z" />
<glyph unicode="T" d="M-10 1343v119h1159v-119h-510v-1343h-139v1343h-510z" />
<glyph unicode="U" horiz-adv-x="1402" d="M133 526v936h139v-905q0 -126 29 -216q28 -88 84 -145q55 -56 135 -82q81 -26 180 -26t182 26q81 25 136 82q56 57 84 145q28 87 28 216v905h140v-936q0 -110 -32 -214q-31 -101 -100 -177t-176 -121q-108 -45 -262 -45q-151 0 -259 45q-107 45 -176 121t-100 177 q-32 104 -32 214z" />
<glyph unicode="V" horiz-adv-x="1214" d="M-14 1462h149l475 -1308h4l471 1308h148l-543 -1462h-162z" />
<glyph unicode="W" horiz-adv-x="1857" d="M0 1462h150l331 -1280h4l357 1280h174l358 -1280h4l334 1280h139l-403 -1462h-148l-370 1309h-4l-369 -1309h-151z" />
<glyph unicode="X" horiz-adv-x="1175" d="M-25 0l527 754l-496 708h164l414 -612l428 612h155l-499 -712l528 -750h-168l-444 645l-451 -645h-158z" />
<glyph unicode="Y" horiz-adv-x="1251" d="M-20 1462h165l482 -741l479 741h166l-578 -860v-602h-139v602z" />
<glyph unicode="Z" horiz-adv-x="1175" d="M10 0v123l963 1220h-897v119h1052v-123l-962 -1220h983v-119h-1139z" />
<glyph unicode="[" horiz-adv-x="493" d="M156 -391v1884h329v-109h-200v-1667h200v-108h-329z" />
<glyph unicode="\" horiz-adv-x="681" d="M-27 1493h105l631 -1524h-111z" />
<glyph unicode="]" horiz-adv-x="493" d="M8 -283h201v1667h-201v109h330v-1884h-330v108z" />
<glyph unicode="^" horiz-adv-x="1228" d="M90 487l471 928h107l471 -928h-117l-410 799l-403 -799h-119z" />
<glyph unicode="_" horiz-adv-x="1024" d="M0 -154h1024v-102h-1024v102z" />
<glyph unicode="`" horiz-adv-x="378" d="M-63 1493h159l215 -289h-104z" />
<glyph unicode="a" horiz-adv-x="1062" d="M66 279q0 111 49 173t130 95q80 32 182 46q81 11 206 25q38 4 70 12q35 8 53 21q19 13 31 41q12 27 12 70q0 63 -22 107q-21 43 -59 67q-39 25 -88 34q-50 9 -108 9q-120 0 -199 -58q-78 -58 -83 -188h-129q11 188 128 271t300 83q73 0 139 -13q72 -14 125 -50 q56 -38 90 -103q35 -67 35 -173v-562q0 -77 76 -77q18 0 40 8v-109q-24 -5 -39 -6q-24 -2 -44 -2q-50 0 -79 13t-46 38q-18 26 -22 59q-5 38 -5 74h-4q-31 -47 -71 -91q-34 -39 -80 -67q-43 -27 -101 -42q-57 -15 -133 -15q-70 0 -138 19q-64 18 -113 56q-50 39 -76 96 q-27 58 -27 139zM195 287q0 -50 19 -87q21 -41 52 -66q33 -27 76 -42q41 -14 88 -14q75 0 141 22q69 23 118 66q51 45 80 104q30 62 30 140v168h-4q-12 -22 -47 -33q-34 -10 -62 -15q-38 -7 -169 -25q-90 -12 -159 -34q-71 -22 -117 -64t-46 -120z" />
<glyph unicode="b" horiz-adv-x="1175" d="M123 0v1462h129v-606h4q21 57 58 100q38 44 87 72q52 30 106 44q57 15 116 15q121 0 210 -45q88 -45 148 -121q59 -75 88 -179t29 -214t-29 -214q-29 -102 -88 -178q-61 -78 -148 -122q-89 -45 -210 -45q-128 0 -231 62q-100 61 -146 170h-4v-201h-119zM252 528 q0 -83 19 -162q19 -80 64 -145q42 -61 115 -103q70 -40 173 -40q92 0 157 40q67 41 108 103q41 61 61 145q20 83 20 162q0 80 -20 163q-20 84 -61 145q-41 62 -108 103q-65 40 -157 40q-103 0 -173 -40q-73 -42 -115 -103q-45 -65 -64 -145q-19 -79 -19 -163z" />
<glyph unicode="c" horiz-adv-x="1062" d="M70 528q0 116 32 215q33 101 97 179q61 74 156 120q93 45 214 45q169 0 288 -90q118 -89 140 -272h-129q-27 119 -99 186q-73 68 -200 68q-92 0 -161 -39q-70 -39 -116 -102q-45 -61 -70 -145q-23 -78 -23 -165q0 -86 23 -164q25 -84 70 -145q46 -63 116 -102 q69 -39 161 -39q62 0 113 22q53 22 94 63q42 42 68 95q27 56 33 121h129q-27 -193 -143 -301q-117 -109 -294 -109q-121 0 -214 45q-94 45 -156 121q-65 79 -97 177q-32 99 -32 216z" />
<glyph unicode="d" horiz-adv-x="1175" d="M78 528q0 114 28 214q28 102 89 179q60 76 148 121q89 45 210 45q59 0 116 -15q53 -14 105 -44q50 -28 87 -72q39 -45 59 -100h4v606h129v-1462h-119v201h-4q-22 -53 -61 -95q-40 -43 -91 -73q-53 -31 -109 -47q-60 -17 -116 -17q-121 0 -210 45q-87 44 -148 122t-89 178 t-28 214zM207 528q0 -83 19 -162q20 -81 62 -145q42 -63 107 -103t158 -40q103 0 173 40q73 42 115 103q43 62 63 145t20 162q0 80 -20 163t-63 145q-42 61 -115 103q-70 40 -173 40q-93 0 -158 -40t-107 -103q-42 -64 -62 -145q-19 -79 -19 -163z" />
<glyph unicode="e" horiz-adv-x="1062" d="M70 528q0 104 27 205q26 97 85 179q56 78 148 127q90 48 217 48t217 -51q88 -50 146 -134q57 -83 81 -190q22 -98 22 -189q0 -15 -1 -29h-813q0 -76 20 -146q20 -71 62 -133q39 -58 107 -98q66 -39 159 -39q141 0 221 75q82 77 111 195h129q-40 -179 -151 -279t-310 -100 q-127 0 -217 45q-91 45 -148 122q-59 79 -85 178q-27 102 -27 214zM199 602h684q-1 72 -26 141q-25 71 -66 120q-43 53 -105 84q-62 32 -139 32q-79 0 -141 -32q-62 -31 -105 -84q-44 -53 -69 -121q-26 -69 -33 -140z" />
<glyph unicode="f" horiz-adv-x="530" d="M12 948v109h181v96q0 71 10 125q11 58 39 98q29 41 79 64q48 22 128 22q21 0 53 -2q26 -2 55 -6v-111q-44 7 -49 8q-22 3 -45 3q-53 0 -82 -17q-28 -16 -42 -44q-14 -27 -15 -64q-2 -50 -2 -80v-92h208v-109h-208v-948h-129v948h-181z" />
<glyph unicode="g" d="M70 555q0 110 31 206q31 95 93 170q61 73 149 115q86 41 204 41t207 -62q90 -63 129 -151h4v183h129v-971q0 -117 -26 -213q-25 -94 -81 -160q-55 -65 -144 -100q-90 -35 -218 -35q-75 0 -156 19q-76 18 -136 57q-59 38 -100 99q-40 59 -46 145h129q11 -62 39 -100 q29 -40 72 -64q42 -24 93 -36q47 -11 105 -11q181 0 260 102q80 103 80 297v143h-4q-44 -97 -133 -157q-88 -60 -203 -60q-127 0 -217 42t-149 116q-58 72 -85 173q-26 95 -26 212zM199 541q0 -83 20 -156q21 -76 64 -134q44 -59 108 -94q66 -36 156 -36q84 0 147 36 q65 37 107 94q43 58 64 134q22 80 22 156q0 73 -19 155q-18 78 -59 142q-40 62 -106 102q-65 39 -156 39t-158 -38q-63 -36 -108 -99q-43 -62 -63 -141q-19 -77 -19 -160z" />
<glyph unicode="h" horiz-adv-x="1099" d="M121 0v1462h129v-588h4q19 49 52 88q34 40 79 67q48 29 98 43q53 15 109 15q111 0 185 -28q75 -29 120 -81q47 -54 64 -128q18 -76 18 -170v-680h-129v659q0 67 -12 126q-12 56 -43 102q-29 42 -83 67q-55 25 -130 25q-77 0 -139 -28q-59 -27 -103 -75q-43 -47 -66 -115 q-22 -66 -24 -145v-616h-129z" />
<glyph unicode="i" horiz-adv-x="378" d="M125 0v1057h129v-1057h-129zM125 1255v207h129v-207h-129z" />
<glyph unicode="j" horiz-adv-x="378" d="M-61 -281q22 -2 34 -3q13 -1 35 1q75 0 96 44q21 43 21 110v1186h129v-1155q0 -60 -9 -113q-9 -51 -35 -93q-24 -39 -70 -64q-42 -23 -111 -23q-15 0 -45 2t-45 2v106zM125 1255v207h129v-207h-129z" />
<glyph unicode="k" horiz-adv-x="1024" d="M123 0v1462h129v-917l586 512h172l-451 -391l481 -666h-161l-418 575l-209 -174v-401h-129z" />
<glyph unicode="l" horiz-adv-x="378" d="M125 0v1462h129v-1462h-129z" />
<glyph unicode="m" horiz-adv-x="1705" d="M123 0v1057h119v-178h6q50 94 135 152q83 56 211 56q104 0 189 -51q86 -51 114 -155q46 103 139 155q92 51 197 51q350 0 350 -370v-717h-129v711q0 131 -55 199q-55 69 -195 69q-83 0 -139 -32q-54 -31 -88 -85q-32 -51 -46 -122q-13 -66 -13 -142v-598h-130v717 q0 57 -11 101q-12 49 -37 84t-68 56q-44 21 -105 21q-83 0 -143 -30t-97 -82q-40 -56 -57 -124q-18 -72 -18 -153v-590h-129z" />
<glyph unicode="n" horiz-adv-x="1099" d="M121 0v1057h129v-183h4q19 49 52 88q34 40 79 67q48 29 98 43q53 15 109 15q111 0 185 -28q75 -29 120 -81q47 -54 64 -128q18 -76 18 -170v-680h-129v659q0 67 -12 126q-12 56 -43 102q-29 42 -83 67q-55 25 -130 25q-77 0 -139 -28q-59 -27 -103 -75q-43 -47 -66 -115 q-22 -66 -24 -145v-616h-129z" />
<glyph unicode="o" d="M70 528q0 116 32 215q33 101 97 179q61 74 156 120q93 45 214 45t214 -45q97 -47 157 -120q63 -76 96 -179q33 -102 33 -215q0 -114 -33 -216q-32 -100 -96 -177q-62 -75 -157 -121q-93 -45 -214 -45t-214 45q-94 45 -156 121q-65 79 -97 177q-32 99 -32 216zM199 528 q0 -86 23 -164q25 -84 70 -145q46 -63 116 -102q69 -39 161 -39q93 0 162 39q70 39 116 102q43 59 69 145q24 81 24 164q0 84 -24 165q-26 86 -69 145q-46 63 -116 102q-69 39 -162 39q-92 0 -161 -39q-70 -39 -116 -102q-45 -61 -70 -145q-23 -78 -23 -165z" />
<glyph unicode="p" horiz-adv-x="1175" d="M123 -391v1448h119v-201h4q46 109 146 170q101 61 231 61q121 0 210 -45q88 -45 148 -121q59 -75 88 -179t29 -214t-29 -214q-29 -102 -88 -178q-61 -78 -148 -122q-89 -45 -210 -45q-59 0 -116 15q-59 16 -106 44q-52 32 -87 72q-36 42 -58 101h-4v-592h-129zM252 528 q0 -83 19 -162q19 -80 64 -145q42 -61 115 -103q70 -40 173 -40q92 0 157 40q67 41 108 103q41 61 61 145q20 83 20 162q0 80 -20 163q-20 84 -61 145q-41 62 -108 103q-65 40 -157 40q-108 0 -179 -37t-114 -98q-43 -60 -61 -144q-17 -78 -17 -172z" />
<glyph unicode="q" horiz-adv-x="1175" d="M78 528q0 114 28 214q28 102 89 179q60 76 148 121q89 45 210 45q59 0 116 -16q56 -16 109 -47q49 -29 91 -74q40 -43 61 -94h4v201h119v-1448h-129v592h-4q-21 -57 -59 -101q-35 -40 -87 -72q-48 -29 -105 -44t-116 -15q-121 0 -210 45q-87 44 -148 122t-89 178t-28 214 zM207 528q0 -83 19 -162q20 -81 62 -145q42 -63 107 -103t158 -40q103 0 173 40q73 42 115 103q43 62 63 145t20 162q0 80 -20 163t-63 145q-42 61 -115 103q-70 40 -173 40q-93 0 -158 -40t-107 -103q-42 -64 -62 -145q-19 -79 -19 -163z" />
<glyph unicode="r" horiz-adv-x="645" d="M123 0v1057h119v-248h4q50 131 152 199q95 63 224 64q11 0 23 -1v-129q-11 1 -22 1q-74 0 -138 -24q-70 -26 -124 -79q-51 -49 -80 -123q-29 -73 -29 -154v-563h-129z" />
<glyph unicode="s" horiz-adv-x="985" d="M63 342h130q8 -132 95 -198t216 -66q47 0 96 10t94 35q44 24 71 62q28 39 28 94q0 43 -20 77q-21 35 -52 55q-29 19 -75 35q-39 14 -85 25l-166 37q-61 16 -116 38q-53 21 -94 53q-39 30 -62 78t-23 114q0 80 36 137q37 58 93 92q57 34 128 51q68 16 141 16q82 0 148 -20 q71 -22 121 -63q53 -44 83 -107q31 -64 35 -149h-129q-1 57 -25 103q-23 45 -60 73t-87 42q-48 13 -105 13q-43 0 -87 -9q-41 -8 -81 -31q-35 -20 -59 -56q-23 -35 -23 -86q0 -42 22 -73q20 -28 54 -50q31 -20 72 -34q39 -14 72 -21l172 -39q49 -7 109 -30q53 -21 96 -56 q42 -34 69 -86q27 -51 27 -121q0 -87 -39 -147t-100 -98q-59 -37 -136 -55t-149 -18q-186 0 -302 89q-117 89 -133 284z" />
<glyph unicode="t" horiz-adv-x="606" d="M14 948v109h185v317h129v-317h215v-109h-215v-712q0 -66 17 -100q18 -35 87 -40q56 0 111 6v-110q-20 0 -58 -2t-57 -2q-129 0 -180 51q-49 49 -49 176v10v723h-185z" />
<glyph unicode="u" horiz-adv-x="1099" d="M121 371v686h129v-688q5 -145 66 -217q63 -74 216 -74q83 0 143 36q61 37 99 95q39 60 57 136q19 81 19 157v555h129v-1057h-119v190h-4q-51 -106 -148 -163q-99 -58 -216 -58q-98 0 -171 28q-71 27 -115 80q-44 54 -65 127q-20 71 -20 167z" />
<glyph unicode="v" horiz-adv-x="948" d="M4 1057h143l332 -928h4l328 928h133l-395 -1057h-137z" />
<glyph unicode="w" horiz-adv-x="1517" d="M16 1057h138l270 -905h4l258 905h145l259 -905h4l270 905h137l-340 -1057h-141l-260 889h-4l-258 -889h-142z" />
<glyph unicode="x" horiz-adv-x="985" d="M2 0l410 549l-379 508h162l301 -402l295 402h161l-381 -506l412 -551h-164l-332 444l-325 -444h-160z" />
<glyph unicode="y" horiz-adv-x="948" d="M4 1057h137l348 -901l326 901h129l-459 -1219q-30 -71 -52 -111q-25 -45 -54 -70t-71 -37q-37 -11 -101 -11q-41 2 -61 3q-22 2 -37 7v109q30 -6 44 -8q21 -3 44 -3q41 0 70 13q27 12 48 33q17 17 35 53q13 25 31 67l45 121z" />
<glyph unicode="z" horiz-adv-x="948" d="M31 0v104l690 844h-643v109h807v-92l-699 -856h727v-109h-882z" />
<glyph unicode="{" horiz-adv-x="681" d="M170 496v108q44 0 74 28q28 27 45 74q16 45 22 105t6 121v305q0 115 48 186q47 70 133 70h102v-109h-41q-32 0 -52 -17q-23 -19 -35 -47q-13 -28 -19 -68q-7 -44 -7 -78v-289q0 -85 -18 -145q-17 -56 -43 -100q-22 -37 -48 -60q-25 -22 -34 -27v-4q9 -5 34 -27 q26 -23 48 -60q26 -43 43 -101q18 -60 18 -144v-289q0 -35 7 -80q6 -40 19 -67t35 -46q21 -18 52 -18h41v-108h-102q-86 0 -133 69q-48 71 -48 187v303q0 61 -6 121t-22 105q-17 47 -45 74q-30 28 -74 28z" />
<glyph unicode="|" horiz-adv-x="454" d="M174 -438v2048h109v-2048h-109z" />
<glyph unicode="}" horiz-adv-x="681" d="M82 -283h41q31 0 52 18q22 19 35 46t19 67q7 45 7 80v289q0 84 18 144q17 58 43 101q22 37 48 60q25 22 34 27v4q-9 5 -34 27q-26 23 -48 60q-26 44 -43 100q-18 60 -18 145v289q0 34 -7 78q-6 40 -19 68q-12 28 -35 47q-20 17 -52 17h-41v109h102q86 0 133 -70 q48 -71 48 -186v-303q0 -61 6 -121t22 -105q17 -47 45 -74q30 -28 74 -28v-108q-44 0 -74 -28q-28 -27 -45 -74q-16 -45 -22 -105t-6 -121v-305q0 -116 -48 -187q-47 -69 -133 -69h-102v108z" />
<glyph unicode="~" horiz-adv-x="1228" d="M141 461q17 33 40 64q25 33 55 57q33 26 70 40q40 15 91 15q58 0 118 -21q66 -23 118 -45q45 -20 110 -47q49 -20 91 -20q61 0 103 44q42 43 77 97l73 -74q-20 -30 -48 -64t-55 -56q-32 -26 -68 -40q-40 -16 -85 -16q-61 0 -116 21q-67 25 -109 47q-45 21 -106 45 q-51 20 -113 20q-66 0 -107 -44t-65 -97z" />
<glyph unicode="&#xa1;" horiz-adv-x="493" d="M162 840v217h172v-217h-172zM178 31l31 661h78l30 -661v-422h-139v422z" />
<glyph unicode="&#xa2;" d="M111 528q0 109 28 203q29 97 85 171q58 77 138 123q81 47 191 58v183h80v-179q79 -1 149 -26q70 -24 123 -70q53 -44 88 -111q34 -66 45 -155h-129q-24 114 -92 182t-184 72v-901q53 1 104 26q49 24 87 65q40 44 63 93q25 55 31 117h129q-24 -186 -136 -295t-278 -115 v-207h-80v209q-108 10 -191 59q-81 47 -138 124q-56 76 -85 172q-28 94 -28 202zM240 528q0 -79 19 -152q20 -75 58 -136q39 -61 98 -105q58 -43 138 -55v895q-79 -12 -138 -54t-98 -104q-38 -61 -58 -136q-19 -73 -19 -153z" />
<glyph unicode="&#xa3;" d="M88 80q45 38 87 78q41 40 74 88q32 47 50 100q18 52 18 115q0 49 -16 110q-17 64 -41 105h-166v65h129q-49 80 -80 157q-32 79 -32 173q0 111 40 190q41 80 105 131q65 52 150 76q88 25 172 25q227 0 353 -129t122 -356h-129q0 79 -22 151q-21 70 -65 120q-45 51 -109 78 t-150 27q-68 0 -126 -19q-64 -21 -108 -59q-48 -42 -76 -101t-28 -142q0 -56 11 -93q12 -39 30 -76q12 -24 40 -72q21 -36 39 -81h328v-65h-291q23 -38 36 -96t13 -103q0 -59 -19 -110q-21 -57 -51 -101q-34 -50 -72 -88q-46 -46 -83 -74l4 -4q39 20 96 42q51 20 103 20 q69 0 118 -12t91 -29q43 -17 84 -30q39 -13 92 -13q67 0 129 34t106 81l66 -99q-64 -57 -137 -92q-69 -33 -162 -33q-65 0 -118 12q-64 15 -99 27q-31 11 -95 31q-45 14 -112 14q-39 0 -68 -6q-33 -7 -53 -17q-29 -14 -49 -27q-40 -25 -55 -34z" />
<glyph unicode="&#xa4;" d="M59 279l117 116q-54 68 -83 145q-30 80 -30 169t29 170q27 76 82 145l-115 115l78 78l115 -115q67 55 145 84q85 31 174 31t169 -30q77 -29 145 -83l112 113l78 -78l-110 -111q56 -70 84 -146q30 -81 30 -173t-30 -173q-29 -77 -84 -147l110 -110l-78 -78l-112 112 q-64 -53 -143 -83q-77 -29 -171 -29q-92 0 -173 30q-76 28 -146 84l-115 -114zM193 709q0 -84 29 -154q30 -71 81 -124q49 -51 121 -82q69 -30 147 -30q79 0 148 30q72 31 121 82q51 53 81 124q29 70 29 154q0 83 -29 153q-30 71 -81 124q-49 51 -121 82q-69 30 -148 30 q-78 0 -147 -30q-72 -31 -121 -82q-51 -53 -81 -124q-29 -70 -29 -153z" />
<glyph unicode="&#xa5;" d="M12 1462h148l407 -747l412 747h141l-432 -747h223v-92h-268l-12 -21v-149h280v-93h-280v-360h-129v360h-277v93h277v149l-13 21h-264v92h217z" />
<glyph unicode="&#xa6;" horiz-adv-x="454" d="M174 -182v512h109v-512h-109zM174 842v512h109v-512h-109z" />
<glyph unicode="&#xa7;" d="M92 690q0 52 18 95t48 81t71 65q43 29 86 46q-102 90 -102 223q0 70 30 125q29 54 79 92q51 38 111 57q61 19 126 19q175 0 277 -93t102 -270h-129q2 55 -14 99q-16 45 -49 81q-29 32 -76 54q-43 20 -99 20q-45 0 -84 -10q-40 -10 -73 -33q-35 -24 -53 -56 q-19 -34 -19 -83q0 -78 52 -133t130 -103q84 -52 170 -94q95 -47 170 -100q78 -55 130 -127q53 -73 53 -172q0 -51 -18 -95t-48 -81q-29 -36 -72 -65t-86 -46q103 -91 103 -223q0 -72 -30 -126t-79 -91q-48 -37 -111 -56q-65 -20 -126 -20q-175 0 -277 93t-102 270h129 q-2 -56 14 -100q15 -43 48 -79q30 -33 77 -55q43 -20 98 -20q45 0 84 10q41 11 74 33q33 23 52 56q20 35 20 83q0 77 -53 133q-54 57 -130 104t-170 93q-95 47 -170 100q-78 55 -130 127q-52 71 -52 172zM221 694q0 -76 58 -140q57 -63 139 -115q76 -49 172 -98 q89 -46 155 -91q73 30 123 83t50 138q0 80 -59 144q-59 63 -141 114q-80 50 -173 96q-90 45 -156 90q-76 -31 -121 -82q-47 -53 -47 -139z" />
<glyph unicode="&#xa8;" horiz-adv-x="378" d="M-61 1249v207h139v-207h-139zM301 1249v207h139v-207h-139z" />
<glyph unicode="&#xa9;" horiz-adv-x="1638" d="M57 731q0 158 59 299q59 140 160 243q102 103 242 162q138 58 301 58t301 -58q140 -59 242 -162q103 -104 161 -243q58 -138 58 -299t-58 -299q-58 -139 -161 -243q-100 -101 -242 -161q-141 -59 -301 -59t-301 59q-142 60 -242 161q-101 103 -160 243q-59 141 -59 299z M176 731q0 -137 48 -256q48 -118 134 -207q85 -88 204 -139q118 -51 257 -51q137 0 255 51q119 51 204 139q86 88 135 207q49 117 49 256t-49 256q-49 119 -135 207q-85 88 -204 139q-118 51 -255 51q-139 0 -257 -51q-119 -51 -204 -139q-86 -89 -134 -207 q-48 -119 -48 -256zM393 731q0 99 31 187q30 86 87 149q58 64 139 98q84 35 188 35q75 0 136 -20q65 -21 116 -60t84 -97q32 -57 43 -132h-105q-18 91 -89 153q-72 63 -183 64q-83 0 -147 -29q-60 -27 -105 -80q-45 -52 -65 -119q-21 -69 -21 -149q0 -79 21 -148 q21 -68 65 -120q45 -53 105 -80q64 -29 147 -29q112 0 183 63q71 64 89 154h105q-11 -75 -43 -132q-33 -58 -84 -97q-48 -37 -116 -59q-64 -21 -136 -21q-104 0 -188 35q-81 34 -139 98q-57 63 -87 149q-31 88 -31 187z" />
<glyph unicode="&#xaa;" horiz-adv-x="636" d="M-10 950q0 71 32 112q30 39 83 60q54 22 119 29q84 10 134 14q55 6 81 18q28 12 28 46q0 42 -14 67q-15 27 -39 42q-26 16 -58 22q-33 6 -69 6q-71 0 -123 -35t-53 -108h-97q6 119 84 171q77 52 203 52q46 0 97 -8q45 -7 85 -31q39 -23 59 -62q21 -41 21 -104v-352 q5 -47 51 -47q15 0 27 6v-70q-2 0 -10.5 -1.5t-14.5 -2.5q-20 -2 -30 -2q-63 0 -81 30t-18 85h-4q-84 -133 -252 -133q-105 0 -173 46t-68 150zM86 954q0 -30 13 -50q15 -23 34 -38q21 -16 45 -24q26 -8 49 -8q49 0 91 13q44 14 77 39t52 61q20 37 20 81v96h-4 q-6 -14 -30 -19q-22 -4 -40 -9q-63 -11 -118 -18q-61 -8 -98 -20q-43 -14 -66 -37q-25 -25 -25 -67z" />
<glyph unicode="&#xab;" horiz-adv-x="872" d="M123 500v127l272 256v-138l-192 -182l192 -182v-137zM453 500v127l272 256v-138l-193 -182l193 -182v-137z" />
<glyph unicode="&#xac;" horiz-adv-x="1228" d="M100 666v108h1030v-547h-108v439h-922z" />
<glyph unicode="&#xad;" horiz-adv-x="757" d="M123 504v119h512v-119h-512z" />
<glyph unicode="&#xae;" horiz-adv-x="1638" d="M57 731q0 158 59 299q59 140 160 243q102 103 242 162q138 58 301 58t301 -58q140 -59 242 -162q103 -104 161 -243q58 -138 58 -299t-58 -299q-58 -139 -161 -243q-100 -101 -242 -161q-141 -59 -301 -59t-301 59q-142 60 -242 161q-101 103 -160 243q-59 141 -59 299z M176 731q0 -137 48 -256q48 -118 134 -207q85 -88 204 -139q118 -51 257 -51q137 0 255 51q119 51 204 139q86 88 135 207q49 117 49 256t-49 256q-49 119 -135 207q-85 88 -204 139q-118 51 -255 51q-139 0 -257 -51q-119 -51 -204 -139q-86 -89 -134 -207 q-48 -119 -48 -256zM543 291v880h338q150 0 218 -62t68 -181q0 -62 -17 -102t-48 -71q-28 -28 -71 -47t-85 -26l262 -391h-127l-247 391h-183v-391h-108zM651 774h144q49 0 97 3q47 3 85 18q37 15 59 46q23 32 23 87q0 44 -18 74q-19 31 -47 48t-67 23q-38 6 -77 6h-199 v-305z" />
<glyph unicode="&#xaf;" horiz-adv-x="378" d="M-147 1307v92h673v-92h-673z" />
<glyph unicode="&#xb0;" horiz-adv-x="819" d="M115 1151q0 64 22 115q23 52 63 93q38 38 94 63q54 24 116 24t114 -24q55 -25 93 -63q40 -40 64 -93q24 -52 24 -115q0 -62 -24 -116t-64 -94q-39 -39 -93 -62t-114 -23q-61 0 -116 23t-94 62q-41 41 -63 94t-22 116zM195 1151q0 -46 16 -84q17 -40 46 -69t69 -46 q38 -16 84 -16t84 16q39 16 67 46q28 29 46 69q18 39 18 84t-18 84q-19 41 -46 68q-28 28 -67 46q-37 17 -84 17t-84 -17q-40 -18 -69 -46q-29 -27 -46 -68q-16 -38 -16 -84z" />
<glyph unicode="&#xb1;" horiz-adv-x="1228" d="M100 0v109h1030v-109h-1030zM102 553v109h459v368h109v-368h460v-109h-460v-369h-109v369h-459z" />
<glyph unicode="&#xb2;" horiz-adv-x="681" d="M31 561q1 98 50 165q50 69 117 117q71 51 145 93q78 44 136 98q40 39 60 74q20 36 20 90q0 41 -17 71q-19 33 -46 53q-28 20 -67 33q-34 11 -81 11q-56 0 -94 -19q-40 -20 -64 -53q-24 -32 -34 -74q-11 -44 -11 -87h-96q-5 141 72 227t235 86q128 0 214 -63 q85 -63 85 -193q0 -54 -19 -98q-20 -45 -52 -82q-35 -40 -76 -68q-47 -32 -88 -57q-32 -21 -77 -45q-38 -20 -83 -52q-43 -30 -74 -64q-33 -36 -45 -83h508v-80h-618z" />
<glyph unicode="&#xb3;" horiz-adv-x="681" d="M16 844h97q-4 -98 56 -160q60 -61 169 -61q42 0 86 12q43 12 76 36q32 23 53 58q20 33 20 78q0 85 -66 129q-65 43 -159 43h-72v80h72q32 0 67 9q31 8 61 28q26 18 45 47q18 29 18 67q0 80 -61 118t-140 38q-102 0 -154 -59q-53 -60 -51 -152h-96q1 128 80 210 q78 81 221 81q60 0 111 -13q52 -13 95 -41q42 -27 66 -71q25 -45 25 -102q0 -71 -41 -123t-117 -68v-4q94 -12 143 -69q50 -58 50 -142q0 -66 -27 -117q-26 -49 -71 -85q-40 -32 -104 -51q-57 -17 -128 -17q-152 0 -243 78t-81 223z" />
<glyph unicode="&#xb4;" horiz-adv-x="378" d="M68 1208l215 289h159l-270 -289h-104z" />
<glyph unicode="&#xb5;" horiz-adv-x="1099" d="M121 -391v1448h129v-688q5 -145 66 -217q63 -74 216 -74q83 0 143 36q61 37 99 95q39 60 57 136q19 81 19 157v555h129v-1057h-119v190h-4q-51 -106 -148 -163q-99 -58 -216 -58q-65 0 -128 18q-65 19 -112 54v-432h-131z" />
<glyph unicode="&#xb6;" horiz-adv-x="1228" d="M135 1061q0 195 120 298q119 103 337 103h471v-1824h-129v1716h-246v-1716h-129v1034q-90 0 -168 30q-73 28 -134 84q-54 50 -89 124q-33 70 -33 151z" />
<glyph unicode="&#xb7;" horiz-adv-x="569" d="M164 649q0 47 37 83t84 36q49 0 85 -37t36 -86q0 -47 -37 -83t-84 -36q-49 0 -85 37t-36 86z" />
<glyph unicode="&#xb8;" horiz-adv-x="378" d="M-12 -373l28 66q30 -12 72 -20q45 -9 90 -9q43 0 76 21t33 67q0 37 -27 58q-26 20 -61 20q-73 0 -105 -16l-33 30l125 156h72l-90 -111q32 7 52 8t50 -2q27 -3 58 -17q30 -14 54 -42q24 -29 24 -76q0 -46 -21 -79q-23 -36 -53 -55q-35 -22 -73 -32q-39 -10 -79 -10 q-51 0 -98 10q-49 10 -94 33z" />
<glyph unicode="&#xb9;" horiz-adv-x="681" d="M72 1196v80q56 2 99 6q48 5 77 18q33 15 54 45q22 31 32 82h82v-866h-97v635h-247z" />
<glyph unicode="&#xba;" horiz-adv-x="684" d="M6 1100q0 69 22 135q22 65 62 111q39 45 101 73q60 27 141 27q85 0 151 -27t109 -73q42 -45 64 -111t22 -135t-22 -135t-64 -111q-45 -48 -109 -74t-151 -26q-83 0 -141 26q-60 27 -101 74q-41 46 -62 111q-22 66 -22 135zM102 1100q0 -47 16 -98q14 -46 45 -84 q29 -37 75 -61q43 -23 104 -23t104 23q46 24 75 61q31 38 45 84q16 51 16 98q0 46 -16 97q-15 47 -45 85q-28 35 -75 60q-45 24 -104 24t-104 -24q-47 -25 -75 -60q-30 -38 -45 -85q-16 -51 -16 -97z" />
<glyph unicode="&#xbb;" horiz-adv-x="872" d="M147 244v137l193 182l-193 182v138l273 -256v-127zM477 244v137l193 182l-193 182v138l273 -256v-127z" />
<glyph unicode="&#xbc;" horiz-adv-x="1708" d="M98 1196v80q57 2 100 6q47 5 76 18q34 16 55 45q20 29 31 82h82v-866h-96v635h-248zM272 -70l928 1555h96l-925 -1555h-99zM885 205v80l436 581h90v-581h139v-80h-139v-205h-96v205h-430zM979 285h336v442h-4z" />
<glyph unicode="&#xbd;" horiz-adv-x="1708" d="M98 1196v80q57 2 100 6q47 5 76 18q34 16 55 45q20 29 31 82h82v-866h-96v635h-248zM272 -70l928 1555h96l-925 -1555h-99zM983 0q1 98 50 165q50 69 117 117q71 51 145 93q81 46 137 98q38 37 59 74q20 36 20 90q0 41 -17 71q-19 33 -46 53q-28 20 -67 33q-34 11 -81 11 q-54 0 -94 -20t-63 -52q-25 -34 -35 -75q-10 -40 -10 -87h-97q-5 142 72 228t236 86q129 0 214 -63t85 -193q0 -53 -20 -99q-19 -43 -52 -81q-35 -40 -76 -68q-47 -32 -88 -57q-32 -21 -77 -45q-38 -20 -83 -52q-40 -28 -73 -64t-45 -83h508v-80h-619z" />
<glyph unicode="&#xbe;" horiz-adv-x="1708" d="M16 844h97q-4 -98 56 -160q60 -61 169 -61q42 0 86 12q43 12 76 36q32 23 53 58q20 33 20 78q0 85 -66 129q-65 43 -159 43h-72v80h72q32 0 67 9q31 8 61 28q26 18 45 47q18 29 18 67q0 80 -61 118t-140 38q-102 0 -154 -59q-53 -60 -51 -152h-96q1 128 80 210 q78 81 221 81q60 0 111 -13q52 -13 95 -41q42 -27 66 -71q25 -45 25 -102q0 -71 -41 -123t-117 -68v-4q94 -12 143 -69q50 -58 50 -142q0 -66 -27 -117q-26 -49 -71 -85q-40 -32 -104 -51q-57 -17 -128 -17q-152 0 -243 78t-81 223zM354 -70l928 1555h96l-925 -1555h-99z M885 205v80l436 581h90v-581h139v-80h-139v-205h-96v205h-430zM979 285h336v442h-4z" />
<glyph unicode="&#xbf;" horiz-adv-x="1099" d="M111 -43q0 115 50 195q49 78 128 153q89 90 102 101q37 34 55 70q19 39 25 85q7 54 8 144h129q2 -97 -10 -159q-12 -65 -41 -115q-30 -52 -75 -97q-67 -67 -109 -107q-59 -54 -95 -118q-38 -67 -38 -146q0 -63 23 -112q25 -53 64 -88q38 -34 93 -56q50 -20 112 -20 q85 0 147 28q61 28 103 79q41 50 62 118q20 63 18 147h129q0 -107 -32 -197q-32 -91 -90 -153q-58 -63 -145 -97q-86 -34 -198 -34q-84 0 -160 26q-79 27 -133 74q-57 49 -90 119q-32 67 -32 160zM457 840v217h172v-217h-172z" />
<glyph unicode="&#xc0;" horiz-adv-x="1290" d="M-14 0l589 1462h156l574 -1462h-150l-178 455h-666l-176 -455h-149zM354 573h576l-283 750zM358 1882h160l215 -289h-104z" />
<glyph unicode="&#xc1;" horiz-adv-x="1290" d="M-14 0l589 1462h156l574 -1462h-150l-178 455h-666l-176 -455h-149zM354 573h576l-283 750zM575 1597l216 289h159l-270 -289h-105z" />
<glyph unicode="&#xc2;" horiz-adv-x="1290" d="M-14 0l589 1462h156l574 -1462h-150l-178 455h-666l-176 -455h-149zM344 1595l234 289h141l233 -289h-133l-176 209l-180 -209h-119zM354 573h576l-283 750z" />
<glyph unicode="&#xc3;" horiz-adv-x="1290" d="M-14 0l589 1462h156l574 -1462h-150l-178 455h-666l-176 -455h-149zM328 1638q5 42 18 72q17 39 37 63q23 27 54 45q30 17 73 17q47 0 82 -14q38 -15 72 -33q44 -23 64 -31q30 -12 58 -12q47 0 71 29q24 28 36 69h78q-6 -32 -20 -69q-14 -36 -35 -63q-21 -26 -53 -45 q-30 -17 -70 -17q-44 0 -80 14q-41 16 -74 33q-24 13 -67 33q-29 14 -62 14q-42 0 -66 -27t-36 -78h-80zM354 573h576l-283 750z" />
<glyph unicode="&#xc4;" horiz-adv-x="1290" d="M-14 0l589 1462h156l574 -1462h-150l-178 455h-666l-176 -455h-149zM354 573h576l-283 750zM397 1638v207h140v-207h-140zM760 1638v207h139v-207h-139z" />
<glyph unicode="&#xc5;" horiz-adv-x="1290" d="M-14 0l589 1462h156l574 -1462h-150l-178 455h-666l-176 -455h-149zM354 573h576l-283 750zM432 1761q0 44 18 85t47 70t69 47q38 17 85 17t85 -17q41 -18 70 -47t47 -70q17 -38 17 -85t-17 -85q-18 -40 -47 -69t-70 -47q-40 -18 -85 -18t-85 18t-69 47t-47 69t-18 85z M512 1761q0 -59 40 -99t99 -40q60 0 100 40t40 99q0 60 -40 100t-100 40q-59 0 -99 -40t-40 -100z" />
<glyph unicode="&#xc6;" horiz-adv-x="1857" d="M-14 0l766 1462h1050v-119h-751v-528h704v-119h-704v-577h759v-119h-899v463h-530l-238 -463h-157zM442 582h469v761h-82z" />
<glyph unicode="&#xc7;" horiz-adv-x="1441" d="M78 731q0 152 43 288q44 140 129 244q86 105 216 168q128 62 302 62q102 0 204 -31q97 -29 180 -91q82 -60 135 -148q54 -88 69 -203h-139q-17 82 -61 150q-43 68 -102 112t-133 69q-69 23 -153 23q-146 0 -250 -55q-105 -55 -171 -147q-67 -93 -98 -206 q-32 -117 -32 -235q0 -119 32 -235q31 -114 98 -206q66 -92 171 -147q104 -55 250 -55q102 0 183 37q84 38 143 100q57 60 96 149q36 83 47 183h139q-16 -141 -63 -244q-50 -110 -127 -185q-79 -78 -184 -118q-106 -41 -234 -41h-2l-66 -80q32 7 53 8q20 1 50 -2 q26 -3 57 -17q30 -14 54 -42q24 -29 24 -76q0 -48 -20 -79q-22 -35 -54 -55q-33 -21 -72 -31q-42 -11 -79 -11q-47 0 -99 11t-94 32l29 66q30 -12 72 -20q45 -9 90 -9q42 0 75 21t33 67q0 38 -26 58t-62 20q-72 0 -104 -16l-33 30l102 129q-126 10 -231 58q-128 63 -215 169 q-86 105 -129 243q-43 136 -43 288z" />
<glyph unicode="&#xc8;" horiz-adv-x="1214" d="M147 0v1462h1010v-119h-870v-528h815v-119h-815v-577h880v-119h-1020zM377 1882h160l215 -289h-105z" />
<glyph unicode="&#xc9;" horiz-adv-x="1214" d="M147 0v1462h1010v-119h-870v-528h815v-119h-815v-577h880v-119h-1020zM573 1597l215 289h160l-270 -289h-105z" />
<glyph unicode="&#xca;" horiz-adv-x="1214" d="M147 0v1462h1010v-119h-870v-528h815v-119h-815v-577h880v-119h-1020zM352 1595l234 289h141l234 -289h-134l-176 209l-180 -209h-119z" />
<glyph unicode="&#xcb;" horiz-adv-x="1214" d="M147 0v1462h1010v-119h-870v-528h815v-119h-815v-577h880v-119h-1020zM399 1638v207h140v-207h-140zM762 1638v207h139v-207h-139z" />
<glyph unicode="&#xcc;" horiz-adv-x="454" d="M-76 1882h160l215 -289h-104zM158 0v1462h139v-1462h-139z" />
<glyph unicode="&#xcd;" horiz-adv-x="454" d="M158 0v1462h139v-1462h-139zM158 1597l215 289h159l-270 -289h-104z" />
<glyph unicode="&#xce;" horiz-adv-x="454" d="M-76 1595l234 289h141l233 -289h-133l-176 209l-180 -209h-119zM158 0v1462h139v-1462h-139z" />
<glyph unicode="&#xcf;" horiz-adv-x="454" d="M-23 1638v207h140v-207h-140zM158 0v1462h139v-1462h-139zM340 1638v207h139v-207h-139z" />
<glyph unicode="&#xd0;" horiz-adv-x="1402" d="M0 713v92h147v657h506q332 -8 502 -188q170 -181 170 -543t-170 -543q-170 -180 -502 -188h-506v713h-147zM287 119h297q159 0 271 34q115 35 187 107q75 75 109 191q35 119 35 280q0 162 -35 281q-34 115 -109 190q-74 74 -187 108q-109 33 -271 33h-297v-538h483v-92 h-483v-594z" />
<glyph unicode="&#xd1;" horiz-adv-x="1441" d="M145 0v1462h156l852 -1237h4v1237h139v-1462h-155l-852 1237h-4v-1237h-140zM414 1638q5 42 18 72q17 39 37 63q23 27 54 45q30 17 73 17q47 0 82 -14q38 -15 72 -33q44 -23 64 -31q30 -12 58 -12q47 0 71 29q24 28 36 69h78q-6 -32 -20 -69q-14 -36 -35 -63 q-21 -26 -53 -45q-30 -17 -70 -17q-44 0 -80 14q-41 16 -74 33q-24 13 -67 33q-29 14 -62 14q-42 0 -66 -27t-36 -78h-80z" />
<glyph unicode="&#xd2;" horiz-adv-x="1517" d="M70 731q0 152 43 288q44 140 129 244q86 105 216 168q128 62 302 62t301 -62q130 -63 215 -168q85 -104 129 -244q43 -136 43 -288t-43 -288q-43 -138 -129 -243q-85 -105 -215 -168q-129 -63 -301 -63t-302 63t-216 168t-129 243q-43 136 -43 288zM209 731 q0 -119 32 -235q31 -114 98 -206q66 -92 171 -147q104 -55 250 -55q144 0 248 55q105 55 171 147q67 92 98 206q32 116 32 235q0 118 -32 235q-31 113 -98 206q-66 92 -171 147q-104 55 -248 55q-146 0 -250 -55q-105 -55 -171 -147q-67 -93 -98 -206q-32 -117 -32 -235z M489 1882h160l215 -289h-104z" />
<glyph unicode="&#xd3;" horiz-adv-x="1517" d="M70 731q0 152 43 288q44 140 129 244q86 105 216 168q128 62 302 62t301 -62q130 -63 215 -168q85 -104 129 -244q43 -136 43 -288t-43 -288q-43 -138 -129 -243q-85 -105 -215 -168q-129 -63 -301 -63t-302 63t-216 168t-129 243q-43 136 -43 288zM209 731 q0 -119 32 -235q31 -114 98 -206q66 -92 171 -147q104 -55 250 -55q144 0 248 55q105 55 171 147q67 92 98 206q32 116 32 235q0 118 -32 235q-31 113 -98 206q-66 92 -171 147q-104 55 -248 55q-146 0 -250 -55q-105 -55 -171 -147q-67 -93 -98 -206q-32 -117 -32 -235z M707 1597l215 289h159l-270 -289h-104z" />
<glyph unicode="&#xd4;" horiz-adv-x="1517" d="M70 731q0 152 43 288q44 140 129 244q86 105 216 168q128 62 302 62t301 -62q130 -63 215 -168q85 -104 129 -244q43 -136 43 -288t-43 -288q-43 -138 -129 -243q-85 -105 -215 -168q-129 -63 -301 -63t-302 63t-216 168t-129 243q-43 136 -43 288zM209 731 q0 -119 32 -235q31 -114 98 -206q66 -92 171 -147q104 -55 250 -55q144 0 248 55q105 55 171 147q67 92 98 206q32 116 32 235q0 118 -32 235q-31 113 -98 206q-66 92 -171 147q-104 55 -248 55q-146 0 -250 -55q-105 -55 -171 -147q-67 -93 -98 -206q-32 -117 -32 -235z M459 1595l233 289h142l233 -289h-133l-176 209l-180 -209h-119z" />
<glyph unicode="&#xd5;" horiz-adv-x="1517" d="M70 731q0 152 43 288q44 140 129 244q86 105 216 168q128 62 302 62t301 -62q130 -63 215 -168q85 -104 129 -244q43 -136 43 -288t-43 -288q-43 -138 -129 -243q-85 -105 -215 -168q-129 -63 -301 -63t-302 63t-216 168t-129 243q-43 136 -43 288zM209 731 q0 -119 32 -235q31 -114 98 -206q66 -92 171 -147q104 -55 250 -55q144 0 248 55q105 55 171 147q67 92 98 206q32 116 32 235q0 118 -32 235q-31 113 -98 206q-66 92 -171 147q-104 55 -248 55q-146 0 -250 -55q-105 -55 -171 -147q-67 -93 -98 -206q-32 -117 -32 -235z M440 1638q5 39 19 72q17 39 37 63q22 27 54 45q30 17 73 17q47 0 82 -14q33 -13 71 -33q41 -21 65 -31q30 -12 58 -12q47 0 71 29q24 28 36 69h77q-6 -37 -19 -69q-14 -36 -35 -63q-21 -26 -53 -45q-30 -17 -71 -17q-44 0 -80 14q-37 14 -73 33q-24 13 -67 33q-29 14 -62 14 q-42 0 -66 -27q-25 -29 -37 -78h-80z" />
<glyph unicode="&#xd6;" horiz-adv-x="1517" d="M70 731q0 152 43 288q44 140 129 244q86 105 216 168q128 62 302 62t301 -62q130 -63 215 -168q85 -104 129 -244q43 -136 43 -288t-43 -288q-43 -138 -129 -243q-85 -105 -215 -168q-129 -63 -301 -63t-302 63t-216 168t-129 243q-43 136 -43 288zM209 731 q0 -119 32 -235q31 -114 98 -206q66 -92 171 -147q104 -55 250 -55q144 0 248 55q105 55 171 147q67 92 98 206q32 116 32 235q0 118 -32 235q-31 113 -98 206q-66 92 -171 147q-104 55 -248 55q-146 0 -250 -55q-105 -55 -171 -147q-67 -93 -98 -206q-32 -117 -32 -235z M504 1638v207h139v-207h-139zM866 1638v207h140v-207h-140z" />
<glyph unicode="&#xd7;" horiz-adv-x="1228" d="M152 127l385 387l-385 387l75 76l387 -387l387 387l76 -76l-387 -387l387 -387l-76 -76l-387 385l-387 -385z" />
<glyph unicode="&#xd8;" horiz-adv-x="1517" d="M70 731q0 152 43 288q44 140 129 244q86 105 216 168q128 62 302 62q151 0 268 -48q118 -48 203 -132l145 160l54 -48l-150 -165q87 -107 127 -242q41 -138 41 -287q0 -152 -43 -288q-43 -138 -129 -243q-85 -105 -215 -168q-129 -63 -301 -63q-154 0 -271 48 q-114 47 -202 135l-156 -177l-55 52l162 180q-87 108 -127 242q-41 137 -41 282zM209 731q0 -115 29 -226q28 -109 90 -198l815 907q-66 72 -161 116q-96 44 -222 44q-146 0 -250 -55q-105 -55 -171 -147q-67 -93 -98 -206q-32 -117 -32 -235zM375 250q65 -74 163 -119 q93 -43 222 -43q144 0 248 55q105 55 171 147q67 92 98 206q32 116 32 235q0 114 -29 227q-28 109 -92 199z" />
<glyph unicode="&#xd9;" horiz-adv-x="1402" d="M133 526v936h139v-905q0 -126 29 -216q28 -88 84 -145q55 -56 135 -82q81 -26 180 -26t182 26q81 25 136 82q56 57 84 145q28 87 28 216v905h140v-936q0 -110 -32 -214q-31 -101 -100 -177t-176 -121q-108 -45 -262 -45q-151 0 -259 45q-107 45 -176 121t-100 177 q-32 104 -32 214zM438 1882h160l215 -289h-104z" />
<glyph unicode="&#xda;" horiz-adv-x="1402" d="M133 526v936h139v-905q0 -126 29 -216q28 -88 84 -145q55 -56 135 -82q81 -26 180 -26t182 26q81 25 136 82q56 57 84 145q28 87 28 216v905h140v-936q0 -110 -32 -214q-31 -101 -100 -177t-176 -121q-108 -45 -262 -45q-151 0 -259 45q-107 45 -176 121t-100 177 q-32 104 -32 214zM643 1597l215 289h160l-270 -289h-105z" />
<glyph unicode="&#xdb;" horiz-adv-x="1402" d="M133 526v936h139v-905q0 -126 29 -216q28 -88 84 -145q55 -56 135 -82q81 -26 180 -26t182 26q81 25 136 82q56 57 84 145q28 87 28 216v905h140v-936q0 -110 -32 -214q-31 -101 -100 -177t-176 -121q-108 -45 -262 -45q-151 0 -259 45q-107 45 -176 121t-100 177 q-32 104 -32 214zM397 1595l234 289h141l234 -289h-134l-176 209l-180 -209h-119z" />
<glyph unicode="&#xdc;" horiz-adv-x="1402" d="M133 526v936h139v-905q0 -126 29 -216q28 -88 84 -145q55 -56 135 -82q81 -26 180 -26t182 26q81 25 136 82q56 57 84 145q28 87 28 216v905h140v-936q0 -110 -32 -214q-31 -101 -100 -177t-176 -121q-108 -45 -262 -45q-151 0 -259 45q-107 45 -176 121t-100 177 q-32 104 -32 214zM451 1638v207h139v-207h-139zM813 1638v207h139v-207h-139z" />
<glyph unicode="&#xdd;" horiz-adv-x="1251" d="M-20 1462h165l482 -741l479 741h166l-578 -860v-602h-139v602zM569 1597l215 289h160l-270 -289h-105z" />
<glyph unicode="&#xde;" horiz-adv-x="1290" d="M147 0v1462h140v-239h510q96 0 178 -28q79 -27 137 -82q59 -55 88 -132q31 -81 31 -176t-31 -176q-29 -77 -88 -132q-58 -55 -137 -82q-82 -28 -178 -28h-510v-387h-140zM287 506h479q144 0 235 74t91 225t-91 225t-235 74h-479v-598z" />
<glyph unicode="&#xdf;" horiz-adv-x="1099" d="M125 0v1096q0 100 30 175q29 73 83 124q51 49 128 73q78 25 166 25q83 0 155 -24q76 -25 128 -69q55 -46 87 -113t32 -154q0 -57 -15 -106t-46 -91q-33 -44 -72 -70q-45 -29 -99 -41v-4q76 -6 132 -40q58 -35 96 -86q39 -52 58 -117q20 -68 20 -136q0 -113 -35 -198 t-95 -142q-59 -56 -144 -87q-81 -29 -181 -31h-51q-27 0 -51 4v112q24 -4 48 -6q32 -2 48 -2q63 0 123 18t105 57q48 41 75 102q29 64 29 151q0 105 -32 172q-31 65 -88 101t-135 48q-86 13 -173 13v108q68 0 131 12q64 12 113 42q50 30 80 81t30 131q0 56 -22 105 q-21 47 -58 81t-86 52t-104 18q-155 0 -218 -76q-63 -77 -63 -223v-1085h-129z" />
<glyph unicode="&#xe0;" horiz-adv-x="1062" d="M66 279q0 111 49 173t130 95q80 32 182 46q81 11 206 25q38 4 70 12q35 8 53 21q19 13 31 41q12 27 12 70q0 63 -22 107q-21 43 -59 67q-39 25 -88 34q-50 9 -108 9q-120 0 -199 -58q-78 -58 -83 -188h-129q11 188 128 271t300 83q73 0 139 -13q72 -14 125 -50 q56 -38 90 -103q35 -67 35 -173v-562q0 -77 76 -77q18 0 40 8v-109q-24 -5 -39 -6q-24 -2 -44 -2q-50 0 -79 13t-46 38q-18 26 -22 59q-5 38 -5 74h-4q-31 -47 -71 -91q-34 -39 -80 -67q-43 -27 -101 -42q-57 -15 -133 -15q-70 0 -138 19q-64 18 -113 56q-50 39 -76 96 q-27 58 -27 139zM195 287q0 -50 19 -87q21 -41 52 -66q33 -27 76 -42q41 -14 88 -14q75 0 141 22q69 23 118 66q51 45 80 104q30 62 30 140v168h-4q-12 -22 -47 -33q-34 -10 -62 -15q-38 -7 -169 -25q-90 -12 -159 -34q-71 -22 -117 -64t-46 -120zM258 1493h160l215 -289 h-105z" />
<glyph unicode="&#xe1;" horiz-adv-x="1062" d="M66 279q0 111 49 173t130 95q80 32 182 46q81 11 206 25q38 4 70 12q35 8 53 21q19 13 31 41q12 27 12 70q0 63 -22 107q-21 43 -59 67q-39 25 -88 34q-50 9 -108 9q-120 0 -199 -58q-78 -58 -83 -188h-129q11 188 128 271t300 83q73 0 139 -13q72 -14 125 -50 q56 -38 90 -103q35 -67 35 -173v-562q0 -77 76 -77q18 0 40 8v-109q-24 -5 -39 -6q-24 -2 -44 -2q-50 0 -79 13t-46 38q-18 26 -22 59q-5 38 -5 74h-4q-31 -47 -71 -91q-34 -39 -80 -67q-43 -27 -101 -42q-57 -15 -133 -15q-70 0 -138 19q-64 18 -113 56q-50 39 -76 96 q-27 58 -27 139zM195 287q0 -50 19 -87q21 -41 52 -66q33 -27 76 -42q41 -14 88 -14q75 0 141 22q69 23 118 66q51 45 80 104q30 62 30 140v168h-4q-12 -22 -47 -33q-34 -10 -62 -15q-38 -7 -169 -25q-90 -12 -159 -34q-71 -22 -117 -64t-46 -120zM465 1208l215 289h160 l-271 -289h-104z" />
<glyph unicode="&#xe2;" horiz-adv-x="1062" d="M66 279q0 111 49 173t130 95q80 32 182 46q81 11 206 25q38 4 70 12q35 8 53 21q19 13 31 41q12 27 12 70q0 63 -22 107q-21 43 -59 67q-39 25 -88 34q-50 9 -108 9q-120 0 -199 -58q-78 -58 -83 -188h-129q11 188 128 271t300 83q73 0 139 -13q72 -14 125 -50 q56 -38 90 -103q35 -67 35 -173v-562q0 -77 76 -77q18 0 40 8v-109q-24 -5 -39 -6q-24 -2 -44 -2q-50 0 -79 13t-46 38q-18 26 -22 59q-5 38 -5 74h-4q-31 -47 -71 -91q-34 -39 -80 -67q-43 -27 -101 -42q-57 -15 -133 -15q-70 0 -138 19q-64 18 -113 56q-50 39 -76 96 q-27 58 -27 139zM195 287q0 -50 19 -87q21 -41 52 -66q33 -27 76 -42q41 -14 88 -14q75 0 141 22q69 23 118 66q51 45 80 104q30 62 30 140v168h-4q-12 -22 -47 -33q-34 -10 -62 -15q-38 -7 -169 -25q-90 -12 -159 -34q-71 -22 -117 -64t-46 -120zM227 1206l234 289h141 l234 -289h-134l-176 209l-180 -209h-119z" />
<glyph unicode="&#xe3;" horiz-adv-x="1062" d="M66 279q0 111 49 173t130 95q80 32 182 46q81 11 206 25q38 4 70 12q35 8 53 21q19 13 31 41q12 27 12 70q0 63 -22 107q-21 43 -59 67q-39 25 -88 34q-50 9 -108 9q-120 0 -199 -58q-78 -58 -83 -188h-129q11 188 128 271t300 83q73 0 139 -13q72 -14 125 -50 q56 -38 90 -103q35 -67 35 -173v-562q0 -77 76 -77q18 0 40 8v-109q-24 -5 -39 -6q-24 -2 -44 -2q-50 0 -79 13t-46 38q-18 26 -22 59q-5 38 -5 74h-4q-31 -47 -71 -91q-34 -39 -80 -67q-43 -27 -101 -42q-57 -15 -133 -15q-70 0 -138 19q-64 18 -113 56q-50 39 -76 96 q-27 58 -27 139zM195 287q0 -50 19 -87q21 -41 52 -66q33 -27 76 -42q41 -14 88 -14q75 0 141 22q69 23 118 66q51 45 80 104q30 62 30 140v168h-4q-12 -22 -47 -33q-34 -10 -62 -15q-38 -7 -169 -25q-90 -12 -159 -34q-71 -22 -117 -64t-46 -120zM207 1249q5 42 18 72 q16 37 37 62q22 27 54 45q31 18 73 18q47 0 82 -14q37 -15 72 -33q44 -23 64 -31q30 -12 59 -12q46 0 70 28t36 70h78q-6 -34 -20 -70q-14 -37 -34 -62t-54 -45q-30 -17 -70 -17q-44 0 -80 14q-41 16 -74 33q-13 7 -66 32q-32 15 -63 15q-41 0 -65 -27q-25 -29 -37 -78h-80z " />
<glyph unicode="&#xe4;" horiz-adv-x="1062" d="M66 279q0 111 49 173t130 95q80 32 182 46q81 11 206 25q38 4 70 12q35 8 53 21q19 13 31 41q12 27 12 70q0 63 -22 107q-21 43 -59 67q-39 25 -88 34q-50 9 -108 9q-120 0 -199 -58q-78 -58 -83 -188h-129q11 188 128 271t300 83q73 0 139 -13q72 -14 125 -50 q56 -38 90 -103q35 -67 35 -173v-562q0 -77 76 -77q18 0 40 8v-109q-24 -5 -39 -6q-24 -2 -44 -2q-50 0 -79 13t-46 38q-18 26 -22 59q-5 38 -5 74h-4q-31 -47 -71 -91q-34 -39 -80 -67q-43 -27 -101 -42q-57 -15 -133 -15q-70 0 -138 19q-64 18 -113 56q-50 39 -76 96 q-27 58 -27 139zM195 287q0 -50 19 -87q21 -41 52 -66q33 -27 76 -42q41 -14 88 -14q75 0 141 22q69 23 118 66q51 45 80 104q30 62 30 140v168h-4q-12 -22 -47 -33q-34 -10 -62 -15q-38 -7 -169 -25q-90 -12 -159 -34q-71 -22 -117 -64t-46 -120zM279 1249v207h139v-207 h-139zM641 1249v207h139v-207h-139z" />
<glyph unicode="&#xe5;" horiz-adv-x="1062" d="M66 279q0 111 49 173t130 95q80 32 182 46q81 11 206 25q38 4 70 12q35 8 53 21q19 13 31 41q12 27 12 70q0 63 -22 107q-21 43 -59 67q-39 25 -88 34q-50 9 -108 9q-120 0 -199 -58q-78 -58 -83 -188h-129q11 188 128 271t300 83q73 0 139 -13q72 -14 125 -50 q56 -38 90 -103q35 -67 35 -173v-562q0 -77 76 -77q18 0 40 8v-109q-24 -5 -39 -6q-24 -2 -44 -2q-50 0 -79 13t-46 38q-18 26 -22 59q-5 38 -5 74h-4q-31 -47 -71 -91q-34 -39 -80 -67q-43 -27 -101 -42q-57 -15 -133 -15q-70 0 -138 19q-64 18 -113 56q-50 39 -76 96 q-27 58 -27 139zM195 287q0 -50 19 -87q21 -41 52 -66q33 -27 76 -42q41 -14 88 -14q75 0 141 22q69 23 118 66q51 45 80 104q30 62 30 140v168h-4q-12 -22 -47 -33q-34 -10 -62 -15q-38 -7 -169 -25q-90 -12 -159 -34q-71 -22 -117 -64t-46 -120zM307 1393q0 44 18 85 q18 40 47 69t69 47q41 18 85 18t85 -18t70 -47t47 -69q17 -38 17 -85t-17 -85q-18 -41 -47 -70t-70 -47q-38 -17 -85 -17t-85 17q-40 18 -69 47t-47 70q-18 40 -18 85zM387 1393q0 -60 40 -100t99 -40q60 0 100 40t40 100q0 59 -40 99t-100 40q-59 0 -99 -40t-40 -99z" />
<glyph unicode="&#xe6;" horiz-adv-x="1781" d="M66 279q0 111 49 173t130 95q80 32 182 46q81 11 206 25q38 4 70 12q35 8 53 21q19 13 31 41q12 27 12 70q0 63 -22 107q-21 43 -59 67q-39 25 -88 34q-50 9 -108 9q-120 0 -199 -58q-78 -58 -83 -188h-129q11 188 128 271t300 83q53 0 111 -9q63 -10 109 -32 q51 -25 86 -67q35 -43 46 -111h4q23 60 60 97q43 43 89 68q51 28 107 41q55 13 115 13q132 0 218 -49q88 -50 140 -132q54 -85 76 -190q22 -106 22 -222h-794q-6 -84 12 -160q18 -77 61 -133q43 -57 111 -90t160 -33q132 0 208 69t105 195h129q-40 -176 -159 -275 q-119 -98 -302 -98q-139 0 -240 67t-147 200h-4q-12 -66 -56 -116q-42 -48 -108 -84q-59 -32 -136 -50q-74 -17 -142 -17q-70 0 -138 19q-64 18 -113 56q-50 39 -76 96q-27 58 -27 139zM195 287q0 -50 19 -87q21 -41 52 -66q33 -27 76 -42q41 -14 88 -14q75 0 141 22 q69 23 118 66q51 45 80 104q30 62 30 140v168h-4q-12 -22 -47 -33q-34 -10 -62 -15q-38 -7 -169 -25q-90 -12 -159 -34q-71 -22 -117 -64t-46 -120zM928 602h665q0 76 -23 141q-24 69 -67 120q-45 54 -105 84q-64 32 -138 32q-78 0 -143 -31q-60 -28 -105 -83 q-45 -54 -65 -121q-21 -67 -19 -142z" />
<glyph unicode="&#xe7;" horiz-adv-x="1062" d="M70 528q0 116 32 215q33 101 97 179q61 74 156 120q93 45 214 45q169 0 288 -90q118 -89 140 -272h-129q-27 119 -99 186q-73 68 -200 68q-92 0 -161 -39q-70 -39 -116 -102q-45 -61 -70 -145q-23 -78 -23 -165q0 -86 23 -164q25 -84 70 -145q46 -63 116 -102 q69 -39 161 -39q62 0 113 22q53 22 94 63q42 42 68 95q27 56 33 121h129q-27 -193 -144 -301q-112 -104 -282 -109l-66 -80q32 7 52 8t50 -2q27 -3 58 -17q30 -14 54 -42q24 -29 24 -76q0 -46 -21 -79q-23 -36 -53 -55q-35 -22 -73 -32q-39 -10 -79 -10q-51 0 -98 10 q-49 10 -94 33l28 66q30 -12 72 -20q45 -9 90 -9q43 0 76 21t33 67q0 37 -27 58q-26 20 -61 20q-73 0 -105 -16l-32 30l102 129q-86 8 -156 41q-93 46 -155 121q-65 79 -97 177q-32 99 -32 216z" />
<glyph unicode="&#xe8;" horiz-adv-x="1062" d="M70 528q0 104 27 205q26 97 85 179q56 78 148 127q90 48 217 48t217 -51q88 -50 146 -134q57 -83 81 -190q25 -114 21 -218h-813q0 -76 20 -146q20 -71 62 -133q39 -58 107 -98q66 -39 159 -39q141 0 221 75q82 77 111 195h129q-40 -179 -151 -279t-310 -100 q-127 0 -217 45q-91 45 -148 122q-59 79 -85 178q-27 102 -27 214zM199 602h684q-1 72 -26 141q-25 71 -66 120q-43 53 -105 84q-62 32 -139 32q-79 0 -141 -32q-62 -31 -105 -84q-44 -53 -69 -121q-26 -69 -33 -140zM272 1493h160l215 -289h-104z" />
<glyph unicode="&#xe9;" horiz-adv-x="1062" d="M70 528q0 104 27 205q26 97 85 179q56 78 148 127q90 48 217 48t217 -51q88 -50 146 -134q57 -83 81 -190q25 -114 21 -218h-813q0 -76 20 -146q20 -71 62 -133q39 -58 107 -98q66 -39 159 -39q141 0 221 75q82 77 111 195h129q-40 -179 -151 -279t-310 -100 q-127 0 -217 45q-91 45 -148 122q-59 79 -85 178q-27 102 -27 214zM199 602h684q-1 72 -26 141q-25 71 -66 120q-43 53 -105 84q-62 32 -139 32q-79 0 -141 -32q-62 -31 -105 -84q-44 -53 -69 -121q-26 -69 -33 -140zM479 1208l215 289h160l-270 -289h-105z" />
<glyph unicode="&#xea;" horiz-adv-x="1062" d="M70 528q0 104 27 205q26 97 85 179q56 78 148 127q90 48 217 48t217 -51q88 -50 146 -134q57 -83 81 -190q25 -114 21 -218h-813q0 -76 20 -146q20 -71 62 -133q39 -58 107 -98q66 -39 159 -39q141 0 221 75q82 77 111 195h129q-40 -179 -151 -279t-310 -100 q-127 0 -217 45q-91 45 -148 122q-59 79 -85 178q-27 102 -27 214zM199 602h684q-1 72 -26 141q-25 71 -66 120q-43 53 -105 84q-62 32 -139 32q-79 0 -141 -32q-62 -31 -105 -84q-44 -53 -69 -121q-26 -69 -33 -140zM246 1206l233 289h142l233 -289h-133l-176 209 l-180 -209h-119z" />
<glyph unicode="&#xeb;" horiz-adv-x="1062" d="M70 528q0 104 27 205q26 97 85 179q56 78 148 127q90 48 217 48t217 -51q88 -50 146 -134q57 -83 81 -190q25 -114 21 -218h-813q0 -76 20 -146q20 -71 62 -133q39 -58 107 -98q66 -39 159 -39q141 0 221 75q82 77 111 195h129q-40 -179 -151 -279t-310 -100 q-127 0 -217 45q-91 45 -148 122q-59 79 -85 178q-27 102 -27 214zM199 602h684q-1 72 -26 141q-25 71 -66 120q-43 53 -105 84q-62 32 -139 32q-79 0 -141 -32q-62 -31 -105 -84q-44 -53 -69 -121q-26 -69 -33 -140zM299 1249v207h139v-207h-139zM662 1249v207h139v-207 h-139z" />
<glyph unicode="&#xec;" horiz-adv-x="378" d="M-117 1493h160l215 -289h-104zM125 0v1057h129v-1057h-129z" />
<glyph unicode="&#xed;" horiz-adv-x="378" d="M121 1208l215 289h160l-271 -289h-104zM125 0v1057h129v-1057h-129z" />
<glyph unicode="&#xee;" horiz-adv-x="378" d="M-111 1206l234 289h141l234 -289h-133l-177 209l-180 -209h-119zM125 0v1057h129v-1057h-129z" />
<glyph unicode="&#xef;" horiz-adv-x="378" d="M-59 1249v207h139v-207h-139zM125 0v1057h129v-1057h-129zM303 1249v207h139v-207h-139z" />
<glyph unicode="&#xf0;" d="M70 510q0 109 31 202q32 96 95 168q64 73 152 114q90 42 207 42q80 0 152 -17q74 -17 120 -65h4q-52 98 -119 175q-69 79 -153 147l-215 -121l-68 66l205 114q-74 48 -94 60q-50 31 -96 53l74 72q35 -19 107 -61q61 -36 106 -70l233 131l68 -66l-224 -125 q90 -73 159 -153q73 -85 127 -184q56 -102 85 -215q31 -119 31 -249q0 -112 -31 -217q-29 -100 -92 -178q-62 -77 -156 -120q-96 -44 -223 -44q-123 0 -215 42q-91 42 -152 115q-58 70 -89 171q-29 96 -29 213zM199 508q0 -88 20 -162q20 -75 65 -137q43 -59 112 -95 t165 -36q89 0 159 32q68 31 115 90q45 56 69 137q24 80 24 175q0 76 -21 151q-21 77 -63 134q-43 59 -112 95t-167 36q-100 0 -168 -34q-70 -35 -113 -91q-44 -58 -65 -134q-20 -73 -20 -161z" />
<glyph unicode="&#xf1;" horiz-adv-x="1099" d="M121 0v1057h129v-183h4q19 49 52 88q34 40 79 67q48 29 98 43q53 15 109 15q111 0 185 -28q75 -29 120 -81q47 -54 64 -128q18 -76 18 -170v-680h-129v659q0 67 -12 126q-12 56 -43 102q-29 42 -83 67q-55 25 -130 25q-77 0 -139 -28q-59 -27 -103 -75q-43 -47 -66 -115 q-22 -66 -24 -145v-616h-129zM227 1249q5 39 19 72q16 37 37 62q23 27 54 45t73 18q47 0 82 -14q33 -13 71 -33q41 -21 65 -31q30 -12 58 -12q47 0 71 28t36 70h77q-7 -39 -19 -70q-13 -34 -35 -62q-21 -26 -53 -45q-30 -17 -71 -17q-44 0 -80 14q-37 14 -73 33q-2 1 -67 32 q-31 15 -62 15q-42 0 -66 -27q-25 -29 -37 -78h-80z" />
<glyph unicode="&#xf2;" d="M70 528q0 116 32 215q33 101 97 179q61 74 156 120q93 45 214 45t214 -45q97 -47 157 -120q63 -76 96 -179q33 -102 33 -215q0 -114 -33 -216q-32 -100 -96 -177q-62 -75 -157 -121q-93 -45 -214 -45t-214 45q-94 45 -156 121q-65 79 -97 177q-32 99 -32 216zM199 528 q0 -86 23 -164q25 -84 70 -145q46 -63 116 -102q69 -39 161 -39q93 0 162 39q70 39 116 102q43 59 69 145q24 81 24 164q0 84 -24 165q-26 86 -69 145q-46 63 -116 102q-69 39 -162 39q-92 0 -161 -39q-70 -39 -116 -102q-45 -61 -70 -145q-23 -78 -23 -165zM299 1493h160 l215 -289h-105z" />
<glyph unicode="&#xf3;" d="M70 528q0 116 32 215q33 101 97 179q61 74 156 120q93 45 214 45t214 -45q97 -47 157 -120q63 -76 96 -179q33 -102 33 -215q0 -114 -33 -216q-32 -100 -96 -177q-62 -75 -157 -121q-93 -45 -214 -45t-214 45q-94 45 -156 121q-65 79 -97 177q-32 99 -32 216zM199 528 q0 -86 23 -164q25 -84 70 -145q46 -63 116 -102q69 -39 161 -39q93 0 162 39q70 39 116 102q43 59 69 145q24 81 24 164q0 84 -24 165q-26 86 -69 145q-46 63 -116 102q-69 39 -162 39q-92 0 -161 -39q-70 -39 -116 -102q-45 -61 -70 -145q-23 -78 -23 -165zM508 1208 l215 289h160l-271 -289h-104z" />
<glyph unicode="&#xf4;" d="M70 528q0 116 32 215q33 101 97 179q61 74 156 120q93 45 214 45t214 -45q97 -47 157 -120q63 -76 96 -179q33 -102 33 -215q0 -114 -33 -216q-32 -100 -96 -177q-62 -75 -157 -121q-93 -45 -214 -45t-214 45q-94 45 -156 121q-65 79 -97 177q-32 99 -32 216zM199 528 q0 -86 23 -164q25 -84 70 -145q46 -63 116 -102q69 -39 161 -39q93 0 162 39q70 39 116 102q43 59 69 145q24 81 24 164q0 84 -24 165q-26 86 -69 145q-46 63 -116 102q-69 39 -162 39q-92 0 -161 -39q-70 -39 -116 -102q-45 -61 -70 -145q-23 -78 -23 -165zM268 1206 l234 289h141l234 -289h-134l-176 209l-180 -209h-119z" />
<glyph unicode="&#xf5;" d="M70 528q0 116 32 215q33 101 97 179q61 74 156 120q93 45 214 45t214 -45q97 -47 157 -120q63 -76 96 -179q33 -102 33 -215q0 -114 -33 -216q-32 -100 -96 -177q-62 -75 -157 -121q-93 -45 -214 -45t-214 45q-94 45 -156 121q-65 79 -97 177q-32 99 -32 216zM199 528 q0 -86 23 -164q25 -84 70 -145q46 -63 116 -102q69 -39 161 -39q93 0 162 39q70 39 116 102q43 59 69 145q24 81 24 164q0 84 -24 165q-26 86 -69 145q-46 63 -116 102q-69 39 -162 39q-92 0 -161 -39q-70 -39 -116 -102q-45 -61 -70 -145q-23 -78 -23 -165zM252 1249 q5 42 18 72q16 37 37 62q23 27 54 45t73 18q47 0 82 -14q38 -15 72 -33q44 -23 64 -31q30 -12 59 -12q46 0 70 28t36 70h78q-7 -39 -19 -70q-13 -34 -35 -62q-20 -25 -54 -45q-30 -17 -70 -17q-44 0 -80 14q-41 16 -74 33q-13 7 -66 32q-31 15 -63 15q-41 0 -65 -27 q-25 -29 -37 -78h-80z" />
<glyph unicode="&#xf6;" d="M70 528q0 116 32 215q33 101 97 179q61 74 156 120q93 45 214 45t214 -45q97 -47 157 -120q63 -76 96 -179q33 -102 33 -215q0 -114 -33 -216q-32 -100 -96 -177q-62 -75 -157 -121q-93 -45 -214 -45t-214 45q-94 45 -156 121q-65 79 -97 177q-32 99 -32 216zM199 528 q0 -86 23 -164q25 -84 70 -145q46 -63 116 -102q69 -39 161 -39q93 0 162 39q70 39 116 102q43 59 69 145q24 81 24 164q0 84 -24 165q-26 86 -69 145q-46 63 -116 102q-69 39 -162 39q-92 0 -161 -39q-70 -39 -116 -102q-45 -61 -70 -145q-23 -78 -23 -165zM322 1249v207 h139v-207h-139zM684 1249v207h139v-207h-139z" />
<glyph unicode="&#xf7;" horiz-adv-x="1228" d="M100 461v108h1030v-108h-1030zM500 102q0 47 34 81t80 34q47 0 81 -34t34 -81q0 -43 -34 -78q-35 -36 -79 -36q-47 0 -81 34q-35 35 -35 80zM500 928q0 47 34 81q33 33 80 33q48 0 81 -33q34 -34 34 -81q0 -44 -34 -79q-35 -36 -79 -36q-47 0 -81 34q-35 35 -35 81z" />
<glyph unicode="&#xf8;" d="M59 18l125 138q-58 74 -86 170q-28 94 -28 202q0 116 32 215q33 101 97 179q61 74 156 120q93 45 214 45q114 0 199 -36q89 -38 150 -103l106 115l45 -41l-111 -121q56 -79 83 -173q28 -98 28 -200q0 -114 -33 -216q-32 -100 -96 -177q-62 -75 -157 -121 q-93 -45 -214 -45q-112 0 -196 37q-88 39 -148 103l-121 -132zM199 528q0 -77 17 -144q19 -73 56 -132l559 604q-44 55 -110 89q-65 34 -152 34q-92 0 -161 -39q-70 -39 -116 -102q-45 -61 -70 -145q-23 -78 -23 -165zM309 199q44 -53 109 -87t151 -34q93 0 162 39 q70 39 116 102q43 59 69 145q24 81 24 164q0 78 -17 145q-18 71 -55 130z" />
<glyph unicode="&#xf9;" horiz-adv-x="1099" d="M121 371v686h129v-688q5 -145 66 -217q63 -74 216 -74q83 0 143 36q61 37 99 95q39 60 57 136q19 81 19 157v555h129v-1057h-119v190h-4q-51 -106 -148 -163q-99 -58 -216 -58q-98 0 -171 28q-71 27 -115 80q-44 54 -65 127q-20 71 -20 167zM291 1493h160l215 -289h-105z " />
<glyph unicode="&#xfa;" horiz-adv-x="1099" d="M121 371v686h129v-688q5 -145 66 -217q63 -74 216 -74q83 0 143 36q61 37 99 95q39 60 57 136q19 81 19 157v555h129v-1057h-119v190h-4q-51 -106 -148 -163q-99 -58 -216 -58q-98 0 -171 28q-71 27 -115 80q-44 54 -65 127q-20 71 -20 167zM489 1208l216 289h159 l-270 -289h-105z" />
<glyph unicode="&#xfb;" horiz-adv-x="1099" d="M121 371v686h129v-688q5 -145 66 -217q63 -74 216 -74q83 0 143 36q61 37 99 95q39 60 57 136q19 81 19 157v555h129v-1057h-119v190h-4q-51 -106 -148 -163q-99 -58 -216 -58q-98 0 -171 28q-71 27 -115 80q-44 54 -65 127q-20 71 -20 167zM246 1206l233 289h142 l233 -289h-133l-176 209l-180 -209h-119z" />
<glyph unicode="&#xfc;" horiz-adv-x="1099" d="M121 371v686h129v-688q5 -145 66 -217q63 -74 216 -74q83 0 143 36q61 37 99 95q39 60 57 136q19 81 19 157v555h129v-1057h-119v190h-4q-51 -106 -148 -163q-99 -58 -216 -58q-98 0 -171 28q-71 27 -115 80q-44 54 -65 127q-20 71 -20 167zM299 1249v207h139v-207h-139z M662 1249v207h139v-207h-139z" />
<glyph unicode="&#xfd;" horiz-adv-x="948" d="M4 1057h137l348 -901l326 901h129l-459 -1219q-30 -71 -52 -111q-25 -45 -54 -70t-71 -37q-37 -11 -101 -11q-41 2 -61 3q-22 2 -37 7v109q30 -6 44 -8q21 -3 44 -3q41 0 70 13q27 12 48 33q17 17 35 53q13 25 31 67l45 121zM432 1208l215 289h160l-270 -289h-105z" />
<glyph unicode="&#xfe;" horiz-adv-x="1175" d="M123 -391v1853h129v-606h4q21 57 58 100q38 44 87 72q52 30 106 44q57 15 116 15q121 0 210 -45q88 -45 148 -121q59 -75 88 -179t29 -214t-29 -214q-29 -102 -88 -178q-61 -78 -148 -122q-89 -45 -210 -45q-59 0 -116 15q-59 16 -106 44q-52 32 -87 72q-36 42 -58 101 h-4v-592h-129zM252 528q0 -83 19 -162q19 -80 64 -145q42 -61 115 -103q70 -40 173 -40q92 0 157 40q67 41 108 103q41 61 61 145q20 83 20 162q0 80 -20 163q-20 84 -61 145q-41 62 -108 103q-65 40 -157 40q-103 0 -173 -40q-73 -42 -115 -103q-45 -65 -64 -145 q-19 -79 -19 -163z" />
<glyph unicode="&#xff;" horiz-adv-x="948" d="M4 1057h137l348 -901l326 901h129l-459 -1219q-30 -71 -52 -111q-25 -45 -54 -70t-71 -37q-37 -11 -101 -11q-41 2 -61 3q-22 2 -37 7v109q30 -6 44 -8q21 -3 44 -3q41 0 70 13q27 12 48 33q17 17 35 53q13 25 31 67l45 121zM240 1249v207h139v-207h-139zM602 1249v207 h139v-207h-139z" />
<glyph unicode="&#x152;" horiz-adv-x="2199" d="M76 731q0 153 47 292q46 136 136 243q87 103 217 166q126 61 292 61q116 0 221 -36q103 -35 176 -116v121h971v-119h-831v-528h753v-119h-753v-577h837v-119h-977v143q-36 -41 -83 -75q-51 -36 -98 -55q-48 -19 -107 -32q-55 -12 -109 -12q-163 0 -292 62 q-130 63 -217 166q-91 108 -136 242q-47 139 -47 292zM215 731q0 -129 36 -246q36 -116 106 -204q71 -89 174 -141t237 -52q111 0 201 35q85 33 159 127q20 23 28 53q7 28 9 59v680q0 40 -2 80q-1 30 -8 56q-18 47 -61 84q-42 36 -99 61q-58 25 -115 38q-58 13 -112 13 q-134 0 -237 -52q-105 -53 -174 -140q-70 -88 -106 -205t-36 -246z" />
<glyph unicode="&#x153;" horiz-adv-x="1820" d="M74 528q0 112 28 211q29 101 87 179q57 76 147 123q88 46 209 46q135 0 235 -63q102 -64 142 -197h4q44 117 145 189q101 71 244 71q236 0 344 -150t108 -443h-786q0 -80 19 -153q19 -74 60 -133t102 -94q63 -36 149 -36q135 0 213 69q77 68 112 193h129 q-44 -180 -163 -274q-123 -97 -304 -97q-66 0 -126 18q-65 19 -110 51q-50 34 -87 84q-36 47 -53 116h-4q-39 -136 -141 -202q-104 -67 -238 -67q-125 0 -213 46t-145 123q-56 76 -82 178q-25 100 -25 212zM203 504q0 -80 18 -156q17 -72 60 -136q40 -59 104 -97 q62 -37 156 -37q97 0 158 41q60 41 95 107q34 64 46 149q12 83 12 162t-12 158t-47 143q-34 61 -96 102q-60 39 -154 39q-101 0 -166 -43q-66 -44 -105 -112q-39 -70 -54 -153q-15 -85 -15 -167zM981 602h657q0 73 -21 142q-20 65 -63 121q-41 53 -102 83q-64 31 -141 31 q-80 0 -144 -31q-60 -29 -103 -83q-42 -53 -63 -120q-20 -64 -20 -143z" />
<glyph unicode="&#x178;" horiz-adv-x="1251" d="M-20 1462h165l482 -741l479 741h166l-578 -860v-602h-139v602zM375 1638v207h139v-207h-139zM737 1638v207h140v-207h-140z" />
<glyph unicode="&#x2c6;" horiz-adv-x="378" d="M-109 1206l234 289h141l234 -289h-133l-177 209l-180 -209h-119z" />
<glyph unicode="&#x2dc;" horiz-adv-x="378" d="M-133 1249q5 42 18 72q16 37 37 62q22 27 54 45q31 18 73 18q47 0 82 -14q37 -15 72 -33q44 -23 64 -31q30 -12 59 -12q46 0 70 28t36 70h78q-6 -34 -20 -70q-14 -37 -34 -62t-54 -45q-30 -17 -70 -17q-44 0 -80 14q-41 16 -74 33q-13 7 -66 32q-32 15 -63 15 q-41 0 -65 -27q-25 -29 -37 -78h-80z" />
<glyph unicode="&#x2000;" horiz-adv-x="990" />
<glyph unicode="&#x2001;" horiz-adv-x="1980" />
<glyph unicode="&#x2002;" horiz-adv-x="990" />
<glyph unicode="&#x2003;" horiz-adv-x="1980" />
<glyph unicode="&#x2004;" horiz-adv-x="660" />
<glyph unicode="&#x2005;" horiz-adv-x="495" />
<glyph unicode="&#x2006;" horiz-adv-x="330" />
<glyph unicode="&#x2007;" horiz-adv-x="330" />
<glyph unicode="&#x2008;" horiz-adv-x="247" />
<glyph unicode="&#x2009;" horiz-adv-x="396" />
<glyph unicode="&#x200a;" horiz-adv-x="110" />
<glyph unicode="&#x2010;" horiz-adv-x="757" d="M123 504v119h512v-119h-512z" />
<glyph unicode="&#x2011;" horiz-adv-x="757" d="M123 504v119h512v-119h-512z" />
<glyph unicode="&#x2012;" horiz-adv-x="757" d="M123 504v119h512v-119h-512z" />
<glyph unicode="&#x2013;" horiz-adv-x="1024" d="M0 504v119h1024v-119h-1024z" />
<glyph unicode="&#x2014;" horiz-adv-x="2048" d="M266 504v119h1516v-119h-1516z" />
<glyph unicode="&#x2018;" horiz-adv-x="569" d="M195 965v219q0 49 11 89q13 47 34 82q23 39 56 66q35 29 81 41v-88q-26 -10 -45 -32t-31 -49q-13 -29 -17 -57q-4 -30 -3 -54h86v-217h-172z" />
<glyph unicode="&#x2019;" horiz-adv-x="569" d="M193 965v88q27 7 45 30q16 21 30 51q14 32 18 57q4 30 3 54h-86v217h172v-219q0 -49 -11 -89q-13 -47 -34 -82q-22 -38 -57 -66q-36 -30 -80 -41z" />
<glyph unicode="&#x201a;" horiz-adv-x="569" d="M193 -193q26 7 45 31q18 22 30 50q14 32 18 58q4 30 3 54h-86v217h172v-219q0 -49 -11 -89q-13 -47 -34 -82q-24 -39 -57 -67q-36 -30 -80 -41v88z" />
<glyph unicode="&#x201c;" horiz-adv-x="757" d="M131 965v219q0 49 11 89q13 47 34 82q23 39 56 66q35 29 81 41v-88q-26 -10 -45 -32q-17 -20 -30 -49q-14 -32 -18 -57q-4 -30 -3 -54h86v-217h-172zM446 965v219q0 46 12 89q13 47 34 82q23 39 56 66q35 29 81 41v-88q-26 -10 -45 -32t-31 -49q-13 -29 -17 -57 q-5 -35 -4 -54h86v-217h-172z" />
<glyph unicode="&#x201d;" horiz-adv-x="757" d="M129 965v88q27 7 45 30q19 23 31 51q13 29 17 57q4 30 3 54h-86v217h172v-219q0 -49 -11 -89q-13 -47 -34 -82q-23 -39 -56 -66q-35 -29 -81 -41zM444 965v88q27 7 45 30q19 23 31 51q14 32 18 57q4 30 3 54h-86v217h172v-219q0 -45 -12 -89q-14 -50 -33 -82 q-22 -38 -57 -66q-35 -29 -81 -41z" />
<glyph unicode="&#x201e;" horiz-adv-x="757" d="M129 -193q26 7 45 31q20 25 31 50q13 28 17 58t3 54h-86v217h172v-219q0 -49 -11 -89q-13 -47 -34 -82q-25 -41 -56 -67q-35 -29 -81 -41v88zM444 -193q26 7 45 31q20 25 31 50q14 32 18 58q4 30 3 54h-86v217h172v-219q0 -45 -12 -89q-14 -50 -33 -82q-24 -39 -57 -67 q-35 -29 -81 -41v88z" />
<glyph unicode="&#x2022;" horiz-adv-x="1024" d="M147 731q0 75 29 142t78 116t116 78t142 29t142 -29q69 -30 117 -78q51 -51 79 -116q29 -67 29 -142t-29 -142t-79 -117t-117 -79q-65 -28 -142 -28t-142 28t-116 79q-48 48 -78 117q-29 67 -29 142z" />
<glyph unicode="&#x2026;" horiz-adv-x="2048" d="M256 0v217h172v-217h-172zM938 0v217h172v-217h-172zM1620 0v217h172v-217h-172z" />
<glyph unicode="&#x202f;" horiz-adv-x="396" />
<glyph unicode="&#x2039;" horiz-adv-x="530" d="M109 500v127l272 256v-138l-193 -182l193 -182v-137z" />
<glyph unicode="&#x203a;" horiz-adv-x="530" d="M150 244v137l192 182l-192 182v138l272 -256v-127z" />
<glyph unicode="&#x205f;" horiz-adv-x="495" />
<glyph unicode="&#x20ac;" d="M31 584l39 92h90q-2 10 -2 18v23q0 23 1 36q1 17 3 44h-131l37 92h104q46 253 188 401q156 168 400 168q253 0 381 -158l-56 -120q-134 161 -327 161q-188 0 -307 -137q-105 -121 -142 -315h682l-37 -92h-657q-6 -53 -6 -88v-17q0 -6 2 -16h622l-38 -92h-578 q29 -216 129 -346q124 -154 324 -154q107 0 196 47q71 40 160 129v-158q-157 -133 -360 -133q-256 0 -414 183q-138 164 -168 432h-135z" />
<glyph unicode="&#x2122;" horiz-adv-x="2027" d="M168 1370v92h657v-92h-274v-752h-109v752h-274zM975 618v844h174l272 -684l265 684h174v-844h-109v746h-4l-299 -746h-62l-299 746h-4v-746h-108z" />
<glyph unicode="&#x25fc;" horiz-adv-x="1054" d="M0 0v1055h1055v-1055h-1055z" />
</font>
</defs>
</svg>
